<svg id="svg" version="1.1" xmlns="http://www.w3.org/2000/svg" xmlns:xlink="http://www.w3.org/1999/xlink" width="400" height="437.0689655172414" viewBox="0, 0, 400,437.0689655172414"><g id="svgg"><path id="path0" d="M88.848 247.742 C 88.517 248.141,88.425 266.086,88.499 315.242 L 88.600 382.200 110.577 382.303 C 122.664 382.360,132.708 382.252,132.897 382.063 C 133.086 381.874,133.227 361.979,133.211 337.852 C 133.190 307.662,133.312 293.737,133.604 293.192 C 134.126 292.217,266.948 291.908,267.920 292.880 C 268.288 293.248,268.400 303.680,268.400 337.400 C 268.400 371.120,268.512 381.552,268.880 381.920 C 269.572 382.612,312.428 382.612,313.120 381.920 C 314.076 380.964,313.785 248.127,312.826 247.614 C 311.529 246.920,89.425 247.047,88.848 247.742 " stroke="none" fill="#fc7c0e" fill-rule="evenodd"></path><path id="path1" d="M89.372 68.120 C 88.591 68.557,88.500 200.740,89.280 201.520 C 89.875 202.115,312.211 202.229,312.579 201.634 C 312.822 201.240,312.902 68.368,312.658 68.125 C 312.460 67.926,269.529 67.937,269.330 68.136 C 269.244 68.223,269.182 88.074,269.193 112.249 C 269.211 151.603,269.147 156.297,268.584 157.102 L 267.955 158.000 201.151 158.000 C 155.867 158.000,134.098 157.867,133.574 157.586 C 132.816 157.180,132.800 156.259,132.800 112.773 C 132.800 76.859,132.701 68.337,132.283 68.177 C 131.398 67.837,89.975 67.782,89.372 68.120 M132.065 68.967 C 132.210 69.168,132.165 69.765,131.965 70.293 C 131.753 70.849,131.600 89.400,131.600 114.450 C 131.600 143.146,131.466 157.564,131.200 157.400 C 130.937 157.238,130.800 142.356,130.800 114.056 C 130.800 81.070,130.687 70.847,130.320 70.480 C 129.376 69.536,91.725 69.818,91.214 70.774 C 90.717 71.703,90.634 198.319,91.130 199.101 C 91.384 199.500,113.627 199.581,201.024 199.501 L 310.600 199.400 310.600 134.800 L 310.600 70.200 291.000 70.200 L 271.400 70.200 271.200 113.567 C 271.042 147.762,270.894 156.969,270.500 157.100 C 270.102 157.233,269.986 148.339,269.933 113.633 C 269.897 89.635,269.852 69.722,269.833 69.382 C 269.804 68.832,272.121 68.764,290.905 68.764 L 312.010 68.764 312.010 134.786 L 312.010 200.809 200.809 200.904 C 126.954 200.968,89.559 200.866,89.460 200.600 C 89.378 200.380,89.453 199.840,89.627 199.400 C 90.041 198.354,90.041 71.246,89.627 70.200 C 89.453 69.760,89.378 69.220,89.460 69.000 C 89.653 68.480,131.690 68.447,132.065 68.967 M268.300 159.300 C 268.025 160.125,133.772 160.226,133.456 159.401 C 133.251 158.868,140.845 158.800,200.846 158.800 C 254.765 158.800,268.433 158.901,268.300 159.300 " stroke="none" fill="#1d4c8c" fill-rule="evenodd"></path><path id="path2" d="M181.600 5.200 C 181.600 5.435,180.208 5.600,178.224 5.600 C 176.367 5.600,174.736 5.780,174.600 6.000 C 174.464 6.220,173.114 6.400,171.600 6.400 C 170.086 6.400,168.736 6.580,168.600 6.800 C 168.464 7.020,167.463 7.200,166.376 7.200 C 165.289 7.200,164.400 7.380,164.400 7.600 C 164.400 7.820,163.494 8.000,162.387 8.000 C 160.968 8.000,160.307 8.177,160.145 8.600 C 159.989 9.006,159.353 9.200,158.181 9.200 C 157.227 9.200,156.336 9.380,156.200 9.600 C 156.064 9.820,155.344 10.000,154.600 10.000 C 153.856 10.000,153.136 10.180,153.000 10.400 C 152.864 10.620,152.043 10.800,151.176 10.800 C 150.309 10.800,149.600 10.980,149.600 11.200 C 149.600 11.420,148.891 11.600,148.024 11.600 C 147.157 11.600,146.336 11.780,146.200 12.000 C 146.064 12.220,145.423 12.400,144.776 12.400 C 144.129 12.400,143.600 12.580,143.600 12.800 C 143.600 13.020,143.054 13.200,142.387 13.200 C 141.679 13.200,141.079 13.449,140.945 13.800 C 140.813 14.142,140.217 14.400,139.557 14.400 C 138.921 14.400,138.400 14.580,138.400 14.800 C 138.400 15.020,137.871 15.200,137.224 15.200 C 136.577 15.200,135.936 15.380,135.800 15.600 C 135.664 15.820,135.124 16.000,134.600 16.000 C 134.076 16.000,133.536 16.180,133.400 16.400 C 133.264 16.620,132.803 16.800,132.376 16.800 C 131.949 16.800,131.600 16.980,131.600 17.200 C 131.600 17.420,131.155 17.600,130.612 17.600 C 130.069 17.600,128.983 17.960,128.200 18.400 C 127.417 18.840,126.511 19.200,126.188 19.200 C 125.865 19.200,125.600 19.470,125.600 19.800 C 125.600 20.219,125.178 20.400,124.200 20.400 C 123.430 20.400,122.800 20.580,122.800 20.800 C 122.800 21.020,122.440 21.200,122.000 21.200 C 121.560 21.200,121.200 21.380,121.200 21.600 C 121.200 21.820,120.840 22.000,120.400 22.000 C 119.960 22.000,119.600 22.180,119.600 22.400 C 119.600 22.620,119.150 22.800,118.600 22.800 C 118.050 22.800,117.600 22.980,117.600 23.200 C 117.600 23.420,117.240 23.600,116.800 23.600 C 116.360 23.600,116.000 23.780,116.000 24.000 C 116.000 24.220,115.640 24.400,115.200 24.400 C 114.756 24.400,114.400 24.667,114.400 25.000 C 114.400 25.373,114.022 25.600,113.400 25.600 C 112.850 25.600,112.400 25.780,112.400 26.000 C 112.400 26.220,112.040 26.400,111.600 26.400 C 111.160 26.400,110.800 26.580,110.800 26.800 C 110.800 27.020,110.440 27.200,110.000 27.200 C 109.560 27.200,109.200 27.380,109.200 27.600 C 109.200 27.820,108.816 28.000,108.347 28.000 C 107.878 28.000,107.203 28.324,106.847 28.720 C 106.491 29.117,105.525 29.755,104.700 30.139 C 103.875 30.523,103.200 31.009,103.200 31.219 C 103.200 31.428,102.790 31.600,102.288 31.600 C 101.787 31.600,101.117 31.960,100.800 32.400 C 100.483 32.840,99.943 33.200,99.600 33.200 C 99.257 33.200,98.717 33.560,98.400 34.000 C 98.083 34.440,97.490 34.800,97.083 34.800 C 96.272 34.800,95.200 35.694,95.200 36.371 C 95.200 36.607,94.880 36.800,94.488 36.800 C 94.097 36.800,93.517 37.160,93.200 37.600 C 92.883 38.040,92.253 38.400,91.800 38.400 C 91.347 38.400,90.717 38.760,90.400 39.200 C 90.083 39.640,89.585 40.000,89.294 40.000 C 88.665 40.000,86.800 41.782,86.800 42.382 C 86.800 42.612,86.422 42.800,85.960 42.800 C 85.499 42.800,84.617 43.340,84.000 44.000 C 83.383 44.660,82.665 45.200,82.404 45.200 C 82.142 45.200,81.141 46.010,80.179 47.000 C 79.217 47.990,78.225 48.800,77.975 48.800 C 77.725 48.800,77.017 49.340,76.400 50.000 C 75.783 50.660,75.177 51.200,75.053 51.200 C 74.807 51.200,72.688 53.042,70.567 55.100 C 69.830 55.815,69.122 56.400,68.995 56.400 C 68.694 56.400,66.800 58.294,66.800 58.595 C 66.800 58.894,64.098 61.600,63.800 61.600 C 63.459 61.600,60.801 64.326,60.791 64.687 C 60.787 64.859,60.136 65.540,59.345 66.200 C 56.706 68.403,54.800 70.510,54.800 71.223 C 54.800 71.710,52.982 73.600,52.513 73.600 C 52.335 73.600,51.832 74.080,51.395 74.666 C 50.958 75.252,50.375 75.959,50.100 76.237 C 49.825 76.515,49.595 76.981,49.589 77.271 C 49.583 77.562,48.773 78.504,47.789 79.365 C 46.805 80.226,46.000 81.189,46.000 81.505 C 46.000 81.821,45.460 82.583,44.800 83.200 C 44.140 83.817,43.600 84.569,43.600 84.872 C 43.600 85.175,43.240 85.683,42.800 86.000 C 42.360 86.317,42.000 86.788,42.000 87.046 C 42.000 87.303,41.730 87.618,41.400 87.745 C 41.070 87.871,40.800 88.211,40.800 88.499 C 40.800 88.787,40.440 89.283,40.000 89.600 C 39.560 89.917,39.200 90.497,39.200 90.888 C 39.200 91.280,39.020 91.600,38.800 91.600 C 38.580 91.600,38.400 91.870,38.400 92.200 C 38.400 92.530,38.220 92.800,38.000 92.800 C 37.780 92.800,37.600 93.117,37.600 93.505 C 37.600 93.893,37.150 94.548,36.600 94.961 C 36.050 95.374,35.600 95.874,35.600 96.073 C 35.600 96.271,35.240 96.820,34.800 97.292 C 34.360 97.764,34.000 98.437,34.000 98.787 C 34.000 99.137,33.640 99.683,33.200 100.000 C 32.760 100.317,32.400 100.897,32.400 101.288 C 32.400 101.680,32.220 102.000,32.000 102.000 C 31.780 102.000,31.600 102.407,31.600 102.905 C 31.600 103.404,31.151 104.147,30.600 104.561 C 30.050 104.974,29.600 105.557,29.600 105.856 C 29.600 106.155,29.420 106.400,29.200 106.400 C 28.980 106.400,28.800 106.760,28.800 107.200 C 28.800 107.640,28.620 108.000,28.400 108.000 C 28.180 108.000,28.000 108.410,28.000 108.912 C 28.000 109.413,27.640 110.083,27.200 110.400 C 26.760 110.717,26.400 111.297,26.400 111.688 C 26.400 112.080,26.220 112.400,26.000 112.400 C 25.780 112.400,25.600 112.741,25.600 113.157 C 25.600 113.574,25.330 114.018,25.000 114.145 C 24.670 114.271,24.400 114.741,24.400 115.187 C 24.400 115.634,24.220 116.000,24.000 116.000 C 23.780 116.000,23.600 116.360,23.600 116.800 C 23.600 117.240,23.420 117.600,23.200 117.600 C 22.980 117.600,22.800 117.960,22.800 118.400 C 22.800 118.840,22.620 119.200,22.400 119.200 C 22.180 119.200,22.000 119.650,22.000 120.200 C 22.000 120.750,21.820 121.200,21.600 121.200 C 21.380 121.200,21.200 121.560,21.200 122.000 C 21.200 122.440,21.020 122.800,20.800 122.800 C 20.580 122.800,20.400 123.149,20.400 123.576 C 20.400 124.003,20.220 124.464,20.000 124.600 C 19.780 124.736,19.600 125.184,19.600 125.595 C 19.600 126.006,19.330 126.613,19.000 126.943 C 18.670 127.273,18.400 127.826,18.400 128.171 C 18.400 128.517,18.220 128.800,18.000 128.800 C 17.780 128.800,17.600 129.149,17.600 129.576 C 17.600 130.003,17.420 130.464,17.200 130.600 C 16.980 130.736,16.800 131.377,16.800 132.024 C 16.800 132.671,16.620 133.200,16.400 133.200 C 16.180 133.200,16.000 133.560,16.000 134.000 C 16.000 134.440,15.820 134.800,15.600 134.800 C 15.380 134.800,15.200 135.430,15.200 136.200 C 15.200 136.970,15.020 137.600,14.800 137.600 C 14.580 137.600,14.400 137.941,14.400 138.357 C 14.400 138.774,14.130 139.218,13.800 139.345 C 13.470 139.471,13.200 140.020,13.200 140.564 C 13.200 141.108,13.020 141.664,12.800 141.800 C 12.580 141.936,12.400 142.577,12.400 143.224 C 12.400 143.871,12.220 144.400,12.000 144.400 C 11.780 144.400,11.600 144.940,11.600 145.600 C 11.600 146.260,11.420 146.800,11.200 146.800 C 10.980 146.800,10.800 147.430,10.800 148.200 C 10.800 148.970,10.620 149.600,10.400 149.600 C 10.180 149.600,10.000 150.140,10.000 150.800 C 10.000 151.460,9.820 152.000,9.600 152.000 C 9.380 152.000,9.200 152.553,9.200 153.229 C 9.200 153.904,8.930 154.727,8.600 155.057 C 8.270 155.387,8.000 156.184,8.000 156.829 C 8.000 157.473,7.820 158.000,7.600 158.000 C 7.380 158.000,7.200 158.630,7.200 159.400 C 7.200 160.170,7.020 160.800,6.800 160.800 C 6.580 160.800,6.400 161.509,6.400 162.376 C 6.400 163.243,6.220 164.064,6.000 164.200 C 5.780 164.336,5.600 165.157,5.600 166.024 C 5.600 166.891,5.420 167.600,5.200 167.600 C 4.980 167.600,4.800 168.590,4.800 169.800 C 4.800 171.010,4.620 172.000,4.400 172.000 C 4.180 172.000,4.000 172.889,4.000 173.976 C 4.000 175.063,3.820 176.064,3.600 176.200 C 3.380 176.336,3.200 177.259,3.200 178.252 C 3.200 179.323,2.956 180.301,2.600 180.657 C 2.216 181.041,2.000 182.029,2.000 183.405 C 2.000 184.586,1.820 185.664,1.600 185.800 C 1.380 185.936,1.200 187.441,1.200 189.144 C 1.200 191.087,1.014 192.426,0.700 192.740 C -0.031 193.471,-0.031 248.856,0.700 249.100 C 1.047 249.216,1.200 250.291,1.200 252.610 C 1.200 254.448,1.380 256.064,1.600 256.200 C 1.820 256.336,2.000 257.414,2.000 258.595 C 2.000 259.971,2.216 260.959,2.600 261.343 C 2.958 261.701,3.200 262.679,3.200 263.771 C 3.200 264.777,3.380 265.600,3.600 265.600 C 3.820 265.600,4.000 266.590,4.000 267.800 C 4.000 269.010,4.180 270.000,4.400 270.000 C 4.620 270.000,4.800 270.889,4.800 271.976 C 4.800 273.063,4.980 274.064,5.200 274.200 C 5.420 274.336,5.600 275.146,5.600 276.000 C 5.600 276.854,5.780 277.664,6.000 277.800 C 6.220 277.936,6.400 278.757,6.400 279.624 C 6.400 280.491,6.580 281.200,6.800 281.200 C 7.020 281.200,7.200 281.729,7.200 282.376 C 7.200 283.023,7.356 283.649,7.547 283.768 C 7.739 283.886,8.011 284.706,8.152 285.591 C 8.294 286.476,8.587 287.200,8.805 287.200 C 9.022 287.200,9.200 287.830,9.200 288.600 C 9.200 289.370,9.380 290.000,9.600 290.000 C 9.820 290.000,10.000 290.540,10.000 291.200 C 10.000 291.860,10.180 292.400,10.400 292.400 C 10.620 292.400,10.800 293.030,10.800 293.800 C 10.800 294.570,10.980 295.200,11.200 295.200 C 11.420 295.200,11.600 295.740,11.600 296.400 C 11.600 297.060,11.780 297.600,12.000 297.600 C 12.220 297.600,12.400 298.129,12.400 298.776 C 12.400 299.423,12.580 300.064,12.800 300.200 C 13.020 300.336,13.200 300.892,13.200 301.436 C 13.200 301.980,13.470 302.529,13.800 302.655 C 14.130 302.782,14.400 303.226,14.400 303.643 C 14.400 304.059,14.580 304.400,14.800 304.400 C 15.020 304.400,15.200 305.030,15.200 305.800 C 15.200 306.570,15.380 307.200,15.600 307.200 C 15.820 307.200,16.000 307.560,16.000 308.000 C 16.000 308.440,16.180 308.800,16.400 308.800 C 16.620 308.800,16.800 309.329,16.800 309.976 C 16.800 310.623,16.980 311.264,17.200 311.400 C 17.420 311.536,17.600 311.997,17.600 312.424 C 17.600 312.851,17.780 313.200,18.000 313.200 C 18.220 313.200,18.400 313.483,18.400 313.829 C 18.400 314.174,18.670 314.727,19.000 315.057 C 19.330 315.387,19.600 315.994,19.600 316.405 C 19.600 316.816,19.780 317.264,20.000 317.400 C 20.220 317.536,20.400 317.997,20.400 318.424 C 20.400 318.851,20.580 319.200,20.800 319.200 C 21.020 319.200,21.200 319.560,21.200 320.000 C 21.200 320.440,21.380 320.800,21.600 320.800 C 21.820 320.800,22.000 321.250,22.000 321.800 C 22.000 322.350,22.180 322.800,22.400 322.800 C 22.620 322.800,22.800 323.160,22.800 323.600 C 22.800 324.040,22.980 324.400,23.200 324.400 C 23.420 324.400,23.600 324.760,23.600 325.200 C 23.600 325.640,23.780 326.000,24.000 326.000 C 24.220 326.000,24.400 326.366,24.400 326.813 C 24.400 327.259,24.670 327.729,25.000 327.855 C 25.330 327.982,25.600 328.426,25.600 328.843 C 25.600 329.259,25.780 329.600,26.000 329.600 C 26.220 329.600,26.400 329.920,26.400 330.312 C 26.400 330.703,26.760 331.283,27.200 331.600 C 27.640 331.917,28.000 332.587,28.000 333.088 C 28.000 333.590,28.180 334.000,28.400 334.000 C 28.620 334.000,28.800 334.360,28.800 334.800 C 28.800 335.240,28.980 335.600,29.200 335.600 C 29.420 335.600,29.600 335.845,29.600 336.144 C 29.600 336.443,30.050 337.026,30.600 337.439 C 31.151 337.853,31.600 338.596,31.600 339.095 C 31.600 339.593,31.780 340.000,32.000 340.000 C 32.220 340.000,32.400 340.320,32.400 340.712 C 32.400 341.103,32.760 341.683,33.200 342.000 C 33.640 342.317,34.000 342.897,34.000 343.288 C 34.000 343.680,34.180 344.000,34.400 344.000 C 34.620 344.000,34.800 344.270,34.800 344.600 C 34.800 344.930,34.980 345.200,35.200 345.200 C 35.420 345.200,35.600 345.445,35.600 345.744 C 35.600 346.043,36.050 346.626,36.600 347.039 C 37.150 347.452,37.600 348.107,37.600 348.495 C 37.600 348.883,37.780 349.200,38.000 349.200 C 38.220 349.200,38.400 349.470,38.400 349.800 C 38.400 350.130,38.580 350.400,38.800 350.400 C 39.020 350.400,39.200 350.720,39.200 351.112 C 39.200 351.503,39.560 352.083,40.000 352.400 C 40.440 352.717,40.800 353.182,40.800 353.432 C 40.800 353.683,41.250 354.226,41.800 354.639 C 42.350 355.052,42.800 355.617,42.800 355.895 C 42.800 356.173,42.980 356.400,43.200 356.400 C 43.420 356.400,43.600 356.688,43.600 357.040 C 43.600 357.391,44.140 358.183,44.800 358.800 C 45.460 359.417,46.000 360.140,46.000 360.408 C 46.000 360.677,46.810 361.672,47.800 362.621 C 48.790 363.569,49.600 364.588,49.600 364.884 C 49.600 365.181,49.960 365.683,50.400 366.000 C 50.840 366.317,51.200 366.730,51.200 366.917 C 51.200 367.309,52.222 368.400,52.590 368.400 C 53.001 368.400,54.800 370.335,54.800 370.777 C 54.800 371.284,55.824 372.575,57.325 373.961 C 60.811 377.182,61.600 377.961,61.600 378.187 C 61.600 378.501,63.483 380.400,63.795 380.400 C 64.097 380.400,66.800 383.103,66.800 383.405 C 66.800 383.698,68.690 385.600,68.981 385.600 C 69.101 385.600,69.941 386.320,70.848 387.200 C 71.755 388.080,72.745 388.800,73.048 388.800 C 73.352 388.800,73.600 388.993,73.600 389.229 C 73.600 389.701,74.587 390.800,75.011 390.800 C 75.158 390.800,75.783 391.340,76.400 392.000 C 77.017 392.660,77.725 393.200,77.975 393.200 C 78.225 393.200,79.217 394.010,80.179 395.000 C 81.141 395.990,82.142 396.800,82.404 396.800 C 82.665 396.800,83.383 397.340,84.000 398.000 C 84.617 398.660,85.422 399.200,85.789 399.200 C 86.444 399.200,87.600 400.093,87.600 400.600 C 87.600 401.061,88.729 402.000,89.283 402.000 C 89.580 402.000,90.083 402.360,90.400 402.800 C 90.717 403.240,91.347 403.600,91.800 403.600 C 92.253 403.600,92.883 403.960,93.200 404.400 C 93.517 404.840,94.097 405.200,94.488 405.200 C 94.880 405.200,95.200 405.393,95.200 405.629 C 95.200 406.306,96.272 407.200,97.083 407.200 C 97.490 407.200,98.083 407.560,98.400 408.000 C 98.717 408.440,99.257 408.800,99.600 408.800 C 99.943 408.800,100.483 409.160,100.800 409.600 C 101.117 410.040,101.787 410.400,102.288 410.400 C 102.790 410.400,103.200 410.580,103.200 410.800 C 103.200 411.020,103.560 411.200,104.000 411.200 C 104.440 411.200,104.800 411.386,104.800 411.613 C 104.800 411.839,105.115 412.145,105.500 412.292 C 105.885 412.439,106.549 412.884,106.975 413.280 C 107.402 413.676,108.077 414.000,108.475 414.000 C 108.874 414.000,109.200 414.180,109.200 414.400 C 109.200 414.620,109.560 414.800,110.000 414.800 C 110.440 414.800,110.800 414.980,110.800 415.200 C 110.800 415.420,111.160 415.600,111.600 415.600 C 112.040 415.600,112.400 415.780,112.400 416.000 C 112.400 416.220,112.850 416.400,113.400 416.400 C 114.022 416.400,114.400 416.627,114.400 417.000 C 114.400 417.333,114.756 417.600,115.200 417.600 C 115.640 417.600,116.000 417.780,116.000 418.000 C 116.000 418.220,116.360 418.400,116.800 418.400 C 117.240 418.400,117.600 418.580,117.600 418.800 C 117.600 419.020,118.050 419.200,118.600 419.200 C 119.150 419.200,119.600 419.380,119.600 419.600 C 119.600 419.820,119.960 420.000,120.400 420.000 C 120.840 420.000,121.200 420.180,121.200 420.400 C 121.200 420.620,121.560 420.800,122.000 420.800 C 122.440 420.800,122.800 420.980,122.800 421.200 C 122.800 421.420,123.430 421.600,124.200 421.600 C 124.970 421.600,125.600 421.780,125.600 422.000 C 125.600 422.220,125.960 422.400,126.400 422.400 C 126.844 422.400,127.200 422.667,127.200 423.000 C 127.200 423.330,127.549 423.600,127.976 423.600 C 128.403 423.600,128.864 423.780,129.000 424.000 C 129.136 424.220,129.777 424.400,130.424 424.400 C 131.071 424.400,131.600 424.580,131.600 424.800 C 131.600 425.020,131.949 425.200,132.376 425.200 C 132.803 425.200,133.264 425.380,133.400 425.600 C 133.536 425.820,134.076 426.000,134.600 426.000 C 135.124 426.000,135.664 426.180,135.800 426.400 C 135.936 426.620,136.577 426.800,137.224 426.800 C 137.871 426.800,138.400 426.980,138.400 427.200 C 138.400 427.420,138.921 427.600,139.557 427.600 C 140.217 427.600,140.813 427.858,140.945 428.200 C 141.079 428.551,141.679 428.800,142.387 428.800 C 143.054 428.800,143.600 428.980,143.600 429.200 C 143.600 429.420,144.129 429.600,144.776 429.600 C 145.423 429.600,146.064 429.780,146.200 430.000 C 146.336 430.220,147.157 430.400,148.024 430.400 C 148.891 430.400,149.600 430.580,149.600 430.800 C 149.600 431.020,150.309 431.200,151.176 431.200 C 152.043 431.200,152.864 431.380,153.000 431.600 C 153.136 431.820,153.856 432.000,154.600 432.000 C 155.344 432.000,156.064 432.180,156.200 432.400 C 156.336 432.620,157.247 432.800,158.224 432.800 C 159.201 432.800,160.000 432.980,160.000 433.200 C 160.000 433.420,160.990 433.600,162.200 433.600 C 163.889 433.600,164.400 433.739,164.400 434.200 C 164.400 434.652,164.886 434.800,166.376 434.800 C 167.463 434.800,168.464 434.980,168.600 435.200 C 168.736 435.420,170.061 435.600,171.544 435.600 C 173.167 435.600,174.439 435.799,174.740 436.100 C 175.129 436.489,180.725 436.600,200.000 436.600 C 219.275 436.600,224.871 436.489,225.260 436.100 C 225.561 435.799,226.833 435.600,228.456 435.600 C 229.939 435.600,231.264 435.420,231.400 435.200 C 231.536 434.980,232.537 434.800,233.624 434.800 C 235.114 434.800,235.600 434.652,235.600 434.200 C 235.600 433.739,236.111 433.600,237.800 433.600 C 239.010 433.600,240.000 433.420,240.000 433.200 C 240.000 432.980,240.799 432.800,241.776 432.800 C 242.753 432.800,243.664 432.620,243.800 432.400 C 243.936 432.180,244.656 432.000,245.400 432.000 C 246.144 432.000,246.864 431.820,247.000 431.600 C 247.136 431.380,247.957 431.200,248.824 431.200 C 249.691 431.200,250.400 431.020,250.400 430.800 C 250.400 430.580,251.109 430.400,251.976 430.400 C 252.843 430.400,253.664 430.220,253.800 430.000 C 253.936 429.780,254.577 429.600,255.224 429.600 C 255.871 429.600,256.400 429.420,256.400 429.200 C 256.400 428.980,256.946 428.800,257.613 428.800 C 258.321 428.800,258.921 428.551,259.055 428.200 C 259.187 427.858,259.783 427.600,260.443 427.600 C 261.079 427.600,261.600 427.420,261.600 427.200 C 261.600 426.980,262.129 426.800,262.776 426.800 C 263.423 426.800,264.064 426.620,264.200 426.400 C 264.336 426.180,264.876 426.000,265.400 426.000 C 265.924 426.000,266.464 425.820,266.600 425.600 C 266.736 425.380,267.197 425.200,267.624 425.200 C 268.051 425.200,268.400 425.020,268.400 424.800 C 268.400 424.580,268.929 424.400,269.576 424.400 C 270.223 424.400,270.864 424.220,271.000 424.000 C 271.136 423.780,271.597 423.600,272.024 423.600 C 272.451 423.600,272.800 423.330,272.800 423.000 C 272.800 422.667,273.156 422.400,273.600 422.400 C 274.040 422.400,274.400 422.220,274.400 422.000 C 274.400 421.780,275.030 421.600,275.800 421.600 C 276.570 421.600,277.200 421.420,277.200 421.200 C 277.200 420.980,277.560 420.800,278.000 420.800 C 278.440 420.800,278.800 420.620,278.800 420.400 C 278.800 420.180,279.250 420.000,279.800 420.000 C 280.350 420.000,280.800 419.820,280.800 419.600 C 280.800 419.380,281.160 419.200,281.600 419.200 C 282.040 419.200,282.400 419.020,282.400 418.800 C 282.400 418.580,282.760 418.400,283.200 418.400 C 283.640 418.400,284.000 418.220,284.000 418.000 C 284.000 417.780,284.360 417.600,284.800 417.600 C 285.244 417.600,285.600 417.333,285.600 417.000 C 285.600 416.627,285.978 416.400,286.600 416.400 C 287.150 416.400,287.600 416.220,287.600 416.000 C 287.600 415.780,287.960 415.600,288.400 415.600 C 288.840 415.600,289.200 415.420,289.200 415.200 C 289.200 414.980,289.560 414.800,290.000 414.800 C 290.440 414.800,290.800 414.620,290.800 414.400 C 290.800 414.180,291.126 414.000,291.525 414.000 C 291.923 414.000,292.598 413.676,293.025 413.280 C 293.451 412.884,294.115 412.439,294.500 412.292 C 294.885 412.145,295.200 411.839,295.200 411.613 C 295.200 411.386,295.560 411.200,296.000 411.200 C 296.440 411.200,296.800 411.020,296.800 410.800 C 296.800 410.580,297.210 410.400,297.712 410.400 C 298.213 410.400,298.883 410.040,299.200 409.600 C 299.517 409.160,300.057 408.800,300.400 408.800 C 300.743 408.800,301.283 408.440,301.600 408.000 C 301.917 407.560,302.510 407.200,302.917 407.200 C 303.728 407.200,304.800 406.306,304.800 405.629 C 304.800 405.393,305.120 405.200,305.512 405.200 C 305.903 405.200,306.483 404.840,306.800 404.400 C 307.117 403.960,307.747 403.600,308.200 403.600 C 308.653 403.600,309.283 403.240,309.600 402.800 C 309.917 402.360,310.420 402.000,310.717 402.000 C 311.271 402.000,312.400 401.061,312.400 400.600 C 312.400 400.093,313.556 399.200,314.211 399.200 C 314.578 399.200,315.383 398.660,316.000 398.000 C 316.617 397.340,317.335 396.800,317.596 396.800 C 317.858 396.800,318.859 395.990,319.821 395.000 C 320.783 394.010,321.775 393.200,322.025 393.200 C 322.275 393.200,322.983 392.660,323.600 392.000 C 324.217 391.340,324.842 390.800,324.989 390.800 C 325.413 390.800,326.400 389.701,326.400 389.229 C 326.400 388.993,326.635 388.800,326.922 388.800 C 327.209 388.800,328.094 388.215,328.889 387.500 C 329.685 386.785,330.976 385.660,331.759 385.000 C 332.542 384.340,333.187 383.659,333.191 383.487 C 333.201 383.123,335.860 380.400,336.205 380.400 C 336.506 380.400,338.400 378.506,338.400 378.205 C 338.400 377.890,341.109 375.200,341.426 375.200 C 341.672 375.200,343.074 373.756,344.500 372.036 C 344.885 371.571,345.200 371.005,345.200 370.777 C 345.200 370.335,346.999 368.400,347.410 368.400 C 347.778 368.400,348.800 367.309,348.800 366.917 C 348.800 366.730,349.160 366.317,349.600 366.000 C 350.040 365.683,350.400 365.181,350.400 364.884 C 350.400 364.588,351.210 363.569,352.200 362.621 C 353.190 361.672,354.000 360.677,354.000 360.408 C 354.000 360.140,354.540 359.417,355.200 358.800 C 355.860 358.183,356.400 357.391,356.400 357.040 C 356.400 356.688,356.580 356.400,356.800 356.400 C 357.020 356.400,357.200 356.173,357.200 355.895 C 357.200 355.617,357.650 355.052,358.200 354.639 C 358.750 354.226,359.200 353.683,359.200 353.432 C 359.200 353.182,359.560 352.717,360.000 352.400 C 360.440 352.083,360.800 351.503,360.800 351.112 C 360.800 350.720,360.980 350.400,361.200 350.400 C 361.420 350.400,361.600 350.130,361.600 349.800 C 361.600 349.470,361.780 349.200,362.000 349.200 C 362.220 349.200,362.400 348.883,362.400 348.495 C 362.400 348.107,362.850 347.452,363.400 347.039 C 363.950 346.626,364.400 346.043,364.400 345.744 C 364.400 345.445,364.580 345.200,364.800 345.200 C 365.020 345.200,365.200 344.930,365.200 344.600 C 365.200 344.270,365.380 344.000,365.600 344.000 C 365.820 344.000,366.000 343.680,366.000 343.288 C 366.000 342.897,366.360 342.317,366.800 342.000 C 367.240 341.683,367.600 341.103,367.600 340.712 C 367.600 340.320,367.780 340.000,368.000 340.000 C 368.220 340.000,368.400 339.593,368.400 339.095 C 368.400 338.596,368.849 337.853,369.400 337.439 C 369.950 337.026,370.400 336.443,370.400 336.144 C 370.400 335.845,370.580 335.600,370.800 335.600 C 371.020 335.600,371.200 335.240,371.200 334.800 C 371.200 334.360,371.380 334.000,371.600 334.000 C 371.820 334.000,372.000 333.590,372.000 333.088 C 372.000 332.587,372.360 331.917,372.800 331.600 C 373.240 331.283,373.600 330.703,373.600 330.312 C 373.600 329.920,373.780 329.600,374.000 329.600 C 374.220 329.600,374.400 329.259,374.400 328.843 C 374.400 328.426,374.670 327.982,375.000 327.855 C 375.330 327.729,375.600 327.259,375.600 326.813 C 375.600 326.366,375.780 326.000,376.000 326.000 C 376.220 326.000,376.400 325.640,376.400 325.200 C 376.400 324.760,376.580 324.400,376.800 324.400 C 377.020 324.400,377.200 324.040,377.200 323.600 C 377.200 323.160,377.380 322.800,377.600 322.800 C 377.820 322.800,378.000 322.350,378.000 321.800 C 378.000 321.250,378.180 320.800,378.400 320.800 C 378.620 320.800,378.800 320.440,378.800 320.000 C 378.800 319.560,378.980 319.200,379.200 319.200 C 379.420 319.200,379.606 318.885,379.613 318.500 C 379.620 318.115,379.890 317.451,380.213 317.024 C 380.536 316.596,380.800 315.921,380.800 315.524 C 380.800 315.126,380.980 314.800,381.200 314.800 C 381.420 314.800,381.600 314.440,381.600 314.000 C 381.600 313.560,381.780 313.200,382.000 313.200 C 382.220 313.200,382.400 312.851,382.400 312.424 C 382.400 311.997,382.580 311.536,382.800 311.400 C 383.020 311.264,383.200 310.623,383.200 309.976 C 383.200 309.329,383.380 308.800,383.600 308.800 C 383.820 308.800,384.000 308.440,384.000 308.000 C 384.000 307.560,384.180 307.200,384.400 307.200 C 384.620 307.200,384.800 306.570,384.800 305.800 C 384.800 305.030,384.980 304.400,385.200 304.400 C 385.420 304.400,385.600 304.059,385.600 303.643 C 385.600 303.226,385.870 302.782,386.200 302.655 C 386.530 302.529,386.800 301.980,386.800 301.436 C 386.800 300.892,386.980 300.336,387.200 300.200 C 387.420 300.064,387.600 299.423,387.600 298.776 C 387.600 298.129,387.780 297.600,388.000 297.600 C 388.220 297.600,388.400 297.060,388.400 296.400 C 388.400 295.740,388.580 295.200,388.800 295.200 C 389.020 295.200,389.200 294.570,389.200 293.800 C 389.200 293.030,389.380 292.400,389.600 292.400 C 389.820 292.400,390.000 291.860,390.000 291.200 C 390.000 290.540,390.180 290.000,390.400 290.000 C 390.620 290.000,390.800 289.389,390.800 288.643 C 390.800 287.805,391.030 287.197,391.400 287.055 C 391.774 286.912,392.000 286.302,392.000 285.436 C 392.000 284.672,392.180 283.936,392.400 283.800 C 392.620 283.664,392.800 283.023,392.800 282.376 C 392.800 281.729,392.980 281.200,393.200 281.200 C 393.420 281.200,393.600 280.491,393.600 279.624 C 393.600 278.757,393.780 277.936,394.000 277.800 C 394.220 277.664,394.400 276.854,394.400 276.000 C 394.400 275.146,394.580 274.336,394.800 274.200 C 395.020 274.064,395.200 273.063,395.200 271.976 C 395.200 270.889,395.380 270.000,395.600 270.000 C 395.820 270.000,396.000 269.010,396.000 267.800 C 396.000 266.590,396.180 265.600,396.400 265.600 C 396.620 265.600,396.800 264.777,396.800 263.771 C 396.800 262.679,397.042 261.701,397.400 261.343 C 397.784 260.959,398.000 259.971,398.000 258.595 C 398.000 257.414,398.180 256.336,398.400 256.200 C 398.620 256.064,398.800 254.559,398.800 252.856 C 398.800 250.913,398.986 249.574,399.300 249.260 C 400.030 248.530,400.030 193.470,399.300 192.740 C 398.986 192.426,398.800 191.087,398.800 189.144 C 398.800 187.441,398.620 185.936,398.400 185.800 C 398.180 185.664,398.000 184.586,398.000 183.405 C 398.000 182.029,397.784 181.041,397.400 180.657 C 397.044 180.301,396.800 179.323,396.800 178.252 C 396.800 177.259,396.620 176.336,396.400 176.200 C 396.180 176.064,396.000 175.063,396.000 173.976 C 396.000 172.889,395.820 172.000,395.600 172.000 C 395.380 172.000,395.200 171.111,395.200 170.024 C 395.200 168.937,395.020 167.936,394.800 167.800 C 394.580 167.664,394.400 166.854,394.400 166.000 C 394.400 165.146,394.220 164.336,394.000 164.200 C 393.780 164.064,393.600 163.243,393.600 162.376 C 393.600 161.509,393.420 160.800,393.200 160.800 C 392.980 160.800,392.800 160.170,392.800 159.400 C 392.800 158.630,392.620 158.000,392.400 158.000 C 392.180 158.000,392.000 157.364,392.000 156.587 C 392.000 155.701,391.777 155.089,391.400 154.945 C 391.030 154.803,390.800 154.195,390.800 153.357 C 390.800 152.611,390.620 152.000,390.400 152.000 C 390.180 152.000,390.000 151.460,390.000 150.800 C 390.000 150.140,389.820 149.600,389.600 149.600 C 389.380 149.600,389.200 148.970,389.200 148.200 C 389.200 147.430,389.020 146.800,388.800 146.800 C 388.580 146.800,388.400 146.260,388.400 145.600 C 388.400 144.940,388.220 144.400,388.000 144.400 C 387.780 144.400,387.600 143.871,387.600 143.224 C 387.600 142.577,387.420 141.936,387.200 141.800 C 386.980 141.664,386.800 141.108,386.800 140.564 C 386.800 140.020,386.530 139.471,386.200 139.345 C 385.870 139.218,385.600 138.774,385.600 138.357 C 385.600 137.941,385.420 137.600,385.200 137.600 C 384.980 137.600,384.800 136.970,384.800 136.200 C 384.800 135.430,384.620 134.800,384.400 134.800 C 384.180 134.800,384.000 134.440,384.000 134.000 C 384.000 133.560,383.820 133.200,383.600 133.200 C 383.380 133.200,383.200 132.671,383.200 132.024 C 383.200 131.377,383.020 130.736,382.800 130.600 C 382.580 130.464,382.400 130.003,382.400 129.576 C 382.400 129.149,382.220 128.800,382.000 128.800 C 381.780 128.800,381.600 128.440,381.600 128.000 C 381.600 127.560,381.420 127.200,381.200 127.200 C 380.980 127.200,380.800 126.874,380.800 126.476 C 380.800 126.079,380.536 125.404,380.213 124.976 C 379.890 124.549,379.620 123.885,379.613 123.500 C 379.606 123.115,379.420 122.800,379.200 122.800 C 378.980 122.800,378.800 122.440,378.800 122.000 C 378.800 121.560,378.620 121.200,378.400 121.200 C 378.180 121.200,378.000 120.750,378.000 120.200 C 378.000 119.650,377.820 119.200,377.600 119.200 C 377.380 119.200,377.200 118.840,377.200 118.400 C 377.200 117.960,377.020 117.600,376.800 117.600 C 376.580 117.600,376.400 117.240,376.400 116.800 C 376.400 116.360,376.220 116.000,376.000 116.000 C 375.780 116.000,375.600 115.634,375.600 115.187 C 375.600 114.741,375.330 114.271,375.000 114.145 C 374.670 114.018,374.400 113.574,374.400 113.157 C 374.400 112.741,374.220 112.400,374.000 112.400 C 373.780 112.400,373.600 112.080,373.600 111.688 C 373.600 111.297,373.240 110.717,372.800 110.400 C 372.360 110.083,372.000 109.413,372.000 108.912 C 372.000 108.410,371.820 108.000,371.600 108.000 C 371.380 108.000,371.200 107.640,371.200 107.200 C 371.200 106.760,371.020 106.400,370.800 106.400 C 370.580 106.400,370.400 106.040,370.400 105.600 C 370.400 105.160,370.207 104.800,369.971 104.800 C 369.266 104.800,368.400 103.714,368.400 102.829 C 368.400 102.373,368.220 102.000,368.000 102.000 C 367.780 102.000,367.600 101.680,367.600 101.288 C 367.600 100.897,367.240 100.317,366.800 100.000 C 366.360 99.683,366.000 99.137,366.000 98.787 C 366.000 98.437,365.640 97.764,365.200 97.292 C 364.760 96.820,364.400 96.271,364.400 96.073 C 364.400 95.874,363.950 95.374,363.400 94.961 C 362.850 94.548,362.400 93.893,362.400 93.505 C 362.400 93.117,362.220 92.800,362.000 92.800 C 361.780 92.800,361.600 92.530,361.600 92.200 C 361.600 91.870,361.420 91.600,361.200 91.600 C 360.980 91.600,360.800 91.280,360.800 90.888 C 360.800 90.497,360.440 89.917,360.000 89.600 C 359.560 89.283,359.200 88.787,359.200 88.499 C 359.200 88.211,358.930 87.871,358.600 87.745 C 358.270 87.618,358.000 87.303,358.000 87.046 C 358.000 86.788,357.640 86.317,357.200 86.000 C 356.760 85.683,356.400 85.175,356.400 84.872 C 356.400 84.569,355.860 83.817,355.200 83.200 C 354.540 82.583,354.000 81.821,354.000 81.505 C 354.000 81.189,353.195 80.226,352.211 79.365 C 351.227 78.504,350.417 77.562,350.411 77.271 C 350.405 76.981,350.175 76.515,349.900 76.237 C 349.625 75.959,349.042 75.252,348.605 74.666 C 348.168 74.080,347.665 73.600,347.487 73.600 C 347.018 73.600,345.200 71.710,345.200 71.223 C 345.200 70.995,344.885 70.429,344.500 69.964 C 343.065 68.233,341.671 66.800,341.421 66.800 C 341.101 66.800,339.200 64.921,339.200 64.605 C 339.200 64.306,336.498 61.600,336.200 61.600 C 335.889 61.600,333.200 58.888,333.200 58.574 C 333.200 58.316,332.290 57.455,329.001 54.600 C 327.988 53.720,326.726 52.595,326.197 52.100 C 325.669 51.605,325.120 51.200,324.979 51.200 C 324.837 51.200,324.217 50.660,323.600 50.000 C 322.983 49.340,322.275 48.800,322.025 48.800 C 321.775 48.800,320.783 47.990,319.821 47.000 C 318.859 46.010,317.858 45.200,317.596 45.200 C 317.335 45.200,316.617 44.660,316.000 44.000 C 315.383 43.340,314.501 42.800,314.040 42.800 C 313.578 42.800,313.200 42.612,313.200 42.382 C 313.200 41.782,311.335 40.000,310.706 40.000 C 310.415 40.000,309.917 39.640,309.600 39.200 C 309.283 38.760,308.653 38.400,308.200 38.400 C 307.747 38.400,307.117 38.040,306.800 37.600 C 306.483 37.160,305.903 36.800,305.512 36.800 C 305.120 36.800,304.800 36.607,304.800 36.371 C 304.800 35.694,303.728 34.800,302.917 34.800 C 302.510 34.800,301.917 34.440,301.600 34.000 C 301.283 33.560,300.743 33.200,300.400 33.200 C 300.057 33.200,299.517 32.840,299.200 32.400 C 298.883 31.960,298.232 31.600,297.754 31.600 C 297.277 31.600,296.782 31.330,296.655 31.000 C 296.529 30.670,296.149 30.400,295.813 30.400 C 295.476 30.400,295.200 30.220,295.200 30.000 C 295.200 29.780,294.922 29.600,294.583 29.600 C 294.244 29.600,293.580 29.240,293.108 28.800 C 292.636 28.360,291.923 28.000,291.525 28.000 C 291.126 28.000,290.800 27.820,290.800 27.600 C 290.800 27.380,290.440 27.200,290.000 27.200 C 289.560 27.200,289.200 27.020,289.200 26.800 C 289.200 26.580,288.840 26.400,288.400 26.400 C 287.960 26.400,287.600 26.220,287.600 26.000 C 287.600 25.780,287.150 25.600,286.600 25.600 C 285.978 25.600,285.600 25.373,285.600 25.000 C 285.600 24.667,285.244 24.400,284.800 24.400 C 284.360 24.400,284.000 24.220,284.000 24.000 C 284.000 23.780,283.640 23.600,283.200 23.600 C 282.760 23.600,282.400 23.420,282.400 23.200 C 282.400 22.980,282.051 22.800,281.624 22.800 C 281.197 22.800,280.736 22.620,280.600 22.400 C 280.464 22.180,280.003 22.000,279.576 22.000 C 279.149 22.000,278.800 21.820,278.800 21.600 C 278.800 21.380,278.440 21.200,278.000 21.200 C 277.560 21.200,277.200 21.020,277.200 20.800 C 277.200 20.580,276.570 20.400,275.800 20.400 C 274.822 20.400,274.400 20.219,274.400 19.800 C 274.400 19.467,274.044 19.200,273.600 19.200 C 273.160 19.200,272.800 19.020,272.800 18.800 C 272.800 18.580,272.451 18.400,272.024 18.400 C 271.597 18.400,271.136 18.220,271.000 18.000 C 270.864 17.780,270.223 17.600,269.576 17.600 C 268.929 17.600,268.400 17.420,268.400 17.200 C 268.400 16.980,268.051 16.800,267.624 16.800 C 267.197 16.800,266.736 16.620,266.600 16.400 C 266.464 16.180,265.924 16.000,265.400 16.000 C 264.876 16.000,264.336 15.820,264.200 15.600 C 264.064 15.380,263.423 15.200,262.776 15.200 C 262.129 15.200,261.600 15.020,261.600 14.800 C 261.600 14.580,261.079 14.400,260.443 14.400 C 259.783 14.400,259.187 14.142,259.055 13.800 C 258.921 13.449,258.321 13.200,257.613 13.200 C 256.946 13.200,256.400 13.020,256.400 12.800 C 256.400 12.580,255.871 12.400,255.224 12.400 C 254.577 12.400,253.936 12.220,253.800 12.000 C 253.664 11.780,252.843 11.600,251.976 11.600 C 251.109 11.600,250.400 11.420,250.400 11.200 C 250.400 10.980,249.691 10.800,248.824 10.800 C 247.957 10.800,247.136 10.620,247.000 10.400 C 246.864 10.180,246.133 10.000,245.376 10.000 C 244.619 10.000,244.000 9.820,244.000 9.600 C 244.000 9.380,243.119 9.200,242.043 9.200 C 240.672 9.200,240.017 9.020,239.855 8.600 C 239.693 8.177,239.032 8.000,237.613 8.000 C 236.506 8.000,235.600 7.820,235.600 7.600 C 235.600 7.380,234.711 7.200,233.624 7.200 C 232.537 7.200,231.536 7.020,231.400 6.800 C 231.264 6.580,229.914 6.400,228.400 6.400 C 226.886 6.400,225.536 6.220,225.400 6.000 C 225.264 5.780,223.633 5.600,221.776 5.600 C 219.792 5.600,218.400 5.435,218.400 5.200 C 218.400 4.939,212.000 4.800,200.000 4.800 C 188.000 4.800,181.600 4.939,181.600 5.200 M132.826 67.214 C 133.584 67.620,133.600 68.540,133.600 111.990 C 133.600 138.844,133.747 156.443,133.971 156.582 C 134.453 156.880,267.152 156.877,267.634 156.579 C 267.852 156.444,268.000 138.453,268.000 112.205 C 268.000 72.604,268.065 67.992,268.629 67.429 C 269.583 66.474,312.417 66.474,313.371 67.429 C 314.333 68.391,314.333 201.209,313.371 202.171 C 312.540 203.003,89.311 203.151,88.480 202.320 C 87.588 201.428,87.806 67.753,88.700 67.232 C 89.671 66.667,131.771 66.650,132.826 67.214 M312.826 247.614 C 313.785 248.127,314.076 380.964,313.120 381.920 C 312.428 382.612,269.572 382.612,268.880 381.920 C 268.512 381.552,268.400 371.120,268.400 337.400 C 268.400 303.680,268.288 293.248,267.920 292.880 C 266.948 291.908,134.126 292.217,133.604 293.192 C 133.312 293.737,133.190 307.662,133.211 337.852 C 133.227 361.979,133.086 381.874,132.897 382.063 C 132.708 382.252,122.664 382.360,110.577 382.303 L 88.600 382.200 88.499 315.242 C 88.425 266.086,88.517 248.141,88.848 247.742 C 89.425 247.047,311.529 246.920,312.826 247.614 " stroke="none" fill="#fbfbfb" fill-rule="evenodd"></path><path id="path3" d="M89.460 69.000 C 89.378 69.220,89.453 69.760,89.627 70.200 C 90.041 71.246,90.041 198.354,89.627 199.400 C 89.453 199.840,89.378 200.380,89.460 200.600 C 89.559 200.866,126.954 200.968,200.809 200.904 L 312.010 200.809 312.010 134.786 L 312.010 68.764 290.905 68.764 C 272.121 68.764,269.804 68.832,269.833 69.382 C 269.852 69.722,269.897 89.635,269.933 113.633 C 269.986 148.339,270.102 157.233,270.500 157.100 C 270.894 156.969,271.042 147.762,271.200 113.567 L 271.400 70.200 291.000 70.200 L 310.600 70.200 310.600 134.800 L 310.600 199.400 201.024 199.501 C 113.627 199.581,91.384 199.500,91.130 199.101 C 90.634 198.319,90.717 71.703,91.214 70.774 C 91.725 69.818,129.376 69.536,130.320 70.480 C 130.687 70.847,130.800 81.070,130.800 114.056 C 130.800 142.356,130.937 157.238,131.200 157.400 C 131.466 157.564,131.600 143.146,131.600 114.450 C 131.600 89.400,131.753 70.849,131.965 70.293 C 132.165 69.765,132.210 69.168,132.065 68.967 C 131.690 68.447,89.653 68.480,89.460 69.000 M133.456 159.401 C 133.772 160.226,268.025 160.125,268.300 159.300 C 268.433 158.901,254.765 158.800,200.846 158.800 C 140.845 158.800,133.251 158.868,133.456 159.401 " stroke="none" fill="#0d3b84" fill-rule="evenodd"></path><path id="path4" d="M88.700 67.232 C 87.806 67.753,87.588 201.428,88.480 202.320 C 89.311 203.151,312.540 203.003,313.371 202.171 C 314.333 201.209,314.333 68.391,313.371 67.429 C 312.417 66.474,269.583 66.474,268.629 67.429 C 268.065 67.992,268.000 72.604,268.000 112.205 C 268.000 138.453,267.852 156.444,267.634 156.579 C 267.152 156.877,134.453 156.880,133.971 156.582 C 133.747 156.443,133.600 138.844,133.600 111.990 C 133.600 68.540,133.584 67.620,132.826 67.214 C 131.771 66.650,89.671 66.667,88.700 67.232 M132.283 68.177 C 132.701 68.337,132.800 76.859,132.800 112.773 C 132.800 156.259,132.816 157.180,133.574 157.586 C 134.098 157.867,155.867 158.000,201.151 158.000 L 267.955 158.000 268.584 157.102 C 269.147 156.297,269.211 151.603,269.193 112.249 C 269.182 88.074,269.244 68.223,269.330 68.136 C 269.529 67.937,312.460 67.926,312.658 68.125 C 312.902 68.368,312.822 201.240,312.579 201.634 C 312.211 202.229,89.875 202.115,89.280 201.520 C 88.500 200.740,88.591 68.557,89.372 68.120 C 89.975 67.782,131.398 67.837,132.283 68.177 " stroke="none" fill="#7c94bc" fill-rule="evenodd"></path></g></svg>