<svg width="311" height="311" viewBox="0 0 311 311" fill="none" xmlns="http://www.w3.org/2000/svg">
<path d="M0 40C0 17.9086 17.9086 0 40 0H271C293.091 0 311 17.9086 311 40V271C311 293.091 293.091 311 271 311H40C17.9086 311 0 293.091 0 271V40Z" fill="#486076"/>
<rect width="196.506" height="149.454" rx="24" transform="matrix(0.982844 -0.184437 -0.00327522 0.999995 54.504 93.2429)" fill="#CAC9C9"/>
<rect width="196.506" height="149.454" rx="22" transform="matrix(0.982844 -0.184437 -0.0206283 0.999787 65.7789 100.882)" fill="#E8E6E3"/>
<path d="M144.096 92.96C144.096 96.7358 141.171 100.43 137.512 101.273V101.273C133.475 102.204 130.156 99.544 130.156 95.3768L130.156 75.5124C130.156 74.5146 130.156 74.0157 130.414 73.6731C130.505 73.5524 130.615 73.4481 130.738 73.3668C131.087 73.136 131.544 73.2028 132.458 73.3364L135.383 73.7638C136.059 73.8625 136.397 73.9119 136.746 73.9068C136.923 73.9042 137.102 73.891 137.282 73.8673C137.636 73.8208 137.992 73.7203 138.706 73.5193L138.994 73.4381C140.825 72.9219 141.741 72.6638 142.439 72.8638C142.974 73.0172 143.419 73.3516 143.713 73.8225C144.096 74.4365 144.096 75.3838 144.096 77.2783L144.096 92.96Z" fill="#E8E6E3"/>
<path d="M202.959 83.1125C202.909 86.6922 200.029 90.1975 196.527 90.9418V90.9418C192.775 91.7393 189.778 89.2766 189.831 85.4412L190.108 65.7703C190.118 65.0447 190.123 64.6819 190.302 64.3871C190.37 64.2759 190.453 64.174 190.549 64.0862C190.804 63.8533 191.159 63.7778 191.868 63.627L198.366 62.2459C200.204 61.8552 201.123 61.6599 201.801 61.9206C202.238 62.0886 202.599 62.3853 202.848 62.7813C203.236 63.3957 203.223 64.3352 203.196 66.2142L202.959 83.1125Z" fill="#E8E6E3"/>
<g clip-path="url(#clip0_1_131)">
<path d="M115.843 121.997C115.844 121.182 116.584 120.384 117.506 120.205L164.343 111.123C176.227 108.818 185.163 108.96 191.15 111.535C197.144 114.116 200.136 119.123 200.132 126.561C200.129 132.185 198.182 137.269 194.29 141.814C191.732 144.797 188.379 147.5 184.233 149.923C182.726 150.804 183 152.691 184.622 152.632C190.348 152.426 195.038 153.403 198.697 155.567C203.85 158.614 206.418 163.692 206.414 170.803C206.409 179.824 202.906 187.418 195.912 193.582C188.918 199.752 178.849 204.108 165.707 206.657L117.457 216.014C116.542 216.191 115.795 215.681 115.796 214.866L115.798 210.772C115.798 210.01 116.451 209.253 117.306 209.016L124.756 206.97C125.133 206.867 125.489 206.655 125.765 206.364L127.442 204.599C127.765 204.262 127.947 203.846 127.947 203.447L127.985 128.533C127.986 128.11 127.777 127.752 127.421 127.541L125.793 126.59C125.524 126.433 125.187 126.374 124.831 126.413L117.361 127.314C116.5 127.416 115.841 126.907 115.841 126.145L115.843 121.997ZM149.019 155.282C149.019 156.061 149.718 156.568 150.6 156.427C151.232 156.328 152.147 156.163 153.359 155.928C161.771 154.297 167.962 151.596 171.934 147.827C175.906 144.058 177.894 138.99 177.897 132.622C177.9 127.041 176.058 123.262 172.385 121.279C168.706 119.297 163.054 119.043 155.429 120.521C154.164 120.766 152.172 121.248 149.433 121.964L148.962 122.055L149.019 155.282ZM148.921 201.832L149.473 201.796C152.73 201.301 155.152 200.903 156.727 200.598C166.189 198.763 173.08 195.903 177.389 192.015C181.704 188.126 183.86 182.805 183.863 176.057C183.866 169.957 181.843 165.797 177.8 163.576C173.751 161.357 167.682 161.034 159.586 162.604C157.217 163.064 155.246 163.47 153.671 163.823C152.614 164.057 151.558 164.304 150.501 164.562C149.62 164.775 148.94 165.555 148.939 166.335L148.921 201.838L148.921 201.832Z" fill="#486076"/>
</g>
<path d="M130.611 75.6762C129.631 74.8594 130.241 73.0871 131.588 72.839L199.859 60.2629C201.501 59.9605 202.905 61.0489 203.021 62.7136V62.7136V62.7136C202.959 65.5041 200.83 68.0617 198.119 68.6017L131.894 81.796C131.729 81.8288 131.627 81.6523 131.724 81.5024V81.5024C131.753 81.4565 131.766 81.4027 131.759 81.3524L131.075 76.5321C131.027 76.1876 130.863 75.8859 130.611 75.6762V75.6762Z" fill="#E8E6E3"/>
<defs>
<clipPath id="clip0_1_131">
<rect width="92.2994" height="95.8202" fill="white" transform="matrix(0.981712 -0.190374 -0.000512677 1 115.844 120.528)"/>
</clipPath>
</defs>
</svg>
