<?xml version="1.0" encoding="UTF-8"?>
<svg id="Layer_1" data-name="Layer 1" xmlns="http://www.w3.org/2000/svg" viewBox="0 0 503.46 503.46">
  <defs>
    <style>
      .cls-1 {
        fill: #4a7dff;
      }

      .cls-1, .cls-2 {
        stroke: #4a7dff;
        stroke-miterlimit: 10;
        stroke-width: 4px;
      }

      .cls-2 {
        fill: #fff;
      }
    </style>
  </defs>
  <rect class="cls-1" x="2" y="2" width="499.46" height="499.46" rx="26.98" ry="26.98"/>
  <path class="cls-2" d="M165.93,368.37c-46.23,3.44-66.61,58.44-46.23,63.59s213.14,17.19,249.97,8.59c36.83-8.59,54.07-78.49,14.89-78.49s-172.39,2.86-218.62,6.3h-.01Z"/>
  <path class="cls-2" d="M237.75,355.36c-14.94,1.43-81.17,8.93-90.2,8.61-18.01-.63-12.38-38.95-1.72-47.89,9.1-7.63,19.91-9.83,46.92-12.07,28.11-2.33,37.8-2.75,46.67,3.5,10.1,7.11,17.36,46.03-1.67,47.84h0Z"/>
  <path class="cls-2" d="M163.87,302.42c24.27-1,99.43-7.05,116.24-14.92,16.81-7.87,90.63-27.27,90.02-42.15-.61-14.88-240.88-2.6-255.24,10.54s24.71,47.53,48.98,46.53h0Z"/>
  <path class="cls-2" d="M357.7,230.22c-16.34-.17-88.86.08-98.67-1.01-14.69-1.64-8.5-32.49.8-40.58,9.05-7.88,18.9-11.59,49.63-11.08,31.15.51,44.82,4.34,52.73,12.45,8.13,8.33,10.62,40.39-4.49,40.23h0Z"/>
  <path class="cls-2" d="M179.34,93.97c-46.23,3.44-66.61,58.44-46.23,63.59,20.37,5.16,213.14,17.19,249.97,8.59,36.83-8.59,54.07-78.49,14.89-78.49s-172.39,2.86-218.62,6.3h-.01Z"/>
  <path class="cls-2" d="M255.47,80.56c-9.7.39-52.78,2.97-58.58,2.33-13.53-1.51-6.78-30.19,1.8-35.85,7.06-4.65,9.65-7.52,27.75-8.58,17.04-1,26.97,2.12,33,6.44,6.3,4.51,4.26,17.22,2.23,26.7-1.08,5.05-3.05,8.83-6.21,8.96h0Z"/>
</svg>