<svg width="59" height="64" viewBox="0 0 59 64" fill="none" xmlns="http://www.w3.org/2000/svg">
<path d="M58.9638 30.3951C58.9638 45.5092 45.7745 57.7597 29.4986 57.7597C27.1494 57.7597 24.8629 57.5032 22.6761 57.0193H22.6733C22.3202 56.9453 21.9785 56.8606 21.6311 56.7707C19.8629 56.382 18.0206 56.1784 16.127 56.1784C9.931 56.1784 4.27885 58.3705 0.0333252 61.9665V30.3951C0.0361726 15.2837 13.2283 3.0332 29.5014 3.0332C45.7745 3.0332 58.9667 15.2837 58.9667 30.3951H58.9638Z" fill="#191919"/>
<g opacity="0.5">
<g filter="url(#filter0_df_3421_338)">
<path d="M49.4306 49.2435L48.1861 48.0821L45.6146 45.6795L43.0375 43.2743L29.3428 30.4932V57.0063C37.1896 57.0063 44.2903 54.0384 49.4306 49.2409V49.2435Z" fill="url(#paint0_linear_3421_338)"/>
</g>
<g filter="url(#filter1_df_3421_338)">
<path d="M9.2262 11.7428L10.4707 12.9043L13.0422 15.3068L15.6193 17.712L29.314 30.4932L29.314 3.98007C21.4672 3.98007 14.3665 6.94795 9.2262 11.7454V11.7428Z" fill="url(#paint1_linear_3421_338)"/>
</g>
</g>
<path d="M29.8247 41.2249C36.312 41.2249 41.571 36.3496 41.571 30.3356C41.571 24.3216 36.312 19.4463 29.8247 19.4463C23.3374 19.4463 18.0784 24.3216 18.0784 30.3356C18.0784 36.3496 23.3374 41.2249 29.8247 41.2249Z" fill="url(#paint2_radial_3421_338)"/>
<g filter="url(#filter2_d_3421_338)">
<path d="M29.6544 31.756C30.4066 31.756 31.0163 31.1908 31.0163 30.4935C31.0163 29.7962 30.4066 29.231 29.6544 29.231C28.9023 29.231 28.2925 29.7962 28.2925 30.4935C28.2925 31.1908 28.9023 31.756 29.6544 31.756Z" fill="#191919"/>
</g>
<defs>
<filter id="filter0_df_3421_338" x="25.3761" y="26.5265" width="28.0212" height="36.7132" filterUnits="userSpaceOnUse" color-interpolation-filters="sRGB">
<feFlood flood-opacity="0" result="BackgroundImageFix"/>
<feColorMatrix in="SourceAlpha" type="matrix" values="0 0 0 0 0 0 0 0 0 0 0 0 0 0 0 0 0 0 127 0" result="hardAlpha"/>
<feOffset dy="2.26667"/>
<feGaussianBlur stdDeviation="1.98333"/>
<feComposite in2="hardAlpha" operator="out"/>
<feColorMatrix type="matrix" values="0 0 0 0 0 0 0 0 0 0 0 0 0 0 0 0 0 0 0.25 0"/>
<feBlend mode="normal" in2="BackgroundImageFix" result="effect1_dropShadow_3421_338"/>
<feBlend mode="normal" in="SourceGraphic" in2="effect1_dropShadow_3421_338" result="shape"/>
<feGaussianBlur stdDeviation="1.98333" result="effect2_foregroundBlur_3421_338"/>
</filter>
<filter id="filter1_df_3421_338" x="5.25953" y="0.0133138" width="28.0212" height="36.7132" filterUnits="userSpaceOnUse" color-interpolation-filters="sRGB">
<feFlood flood-opacity="0" result="BackgroundImageFix"/>
<feColorMatrix in="SourceAlpha" type="matrix" values="0 0 0 0 0 0 0 0 0 0 0 0 0 0 0 0 0 0 127 0" result="hardAlpha"/>
<feOffset dy="2.26667"/>
<feGaussianBlur stdDeviation="1.98333"/>
<feComposite in2="hardAlpha" operator="out"/>
<feColorMatrix type="matrix" values="0 0 0 0 0 0 0 0 0 0 0 0 0 0 0 0 0 0 0.25 0"/>
<feBlend mode="normal" in2="BackgroundImageFix" result="effect1_dropShadow_3421_338"/>
<feBlend mode="normal" in="SourceGraphic" in2="effect1_dropShadow_3421_338" result="shape"/>
<feGaussianBlur stdDeviation="1.98333" result="effect2_foregroundBlur_3421_338"/>
</filter>
<filter id="filter2_d_3421_338" x="22.0592" y="21.8643" width="15.1904" height="14.9916" filterUnits="userSpaceOnUse" color-interpolation-filters="sRGB">
<feFlood flood-opacity="0" result="BackgroundImageFix"/>
<feColorMatrix in="SourceAlpha" type="matrix" values="0 0 0 0 0 0 0 0 0 0 0 0 0 0 0 0 0 0 127 0" result="hardAlpha"/>
<feOffset dy="-1.13333"/>
<feGaussianBlur stdDeviation="3.11667"/>
<feComposite in2="hardAlpha" operator="out"/>
<feColorMatrix type="matrix" values="0 0 0 0 0 0 0 0 0 0 0 0 0 0 0 0 0 0 0.25 0"/>
<feBlend mode="normal" in2="BackgroundImageFix" result="effect1_dropShadow_3421_338"/>
<feBlend mode="normal" in="SourceGraphic" in2="effect1_dropShadow_3421_338" result="shape"/>
</filter>
<linearGradient id="paint0_linear_3421_338" x1="44.8244" y1="38.8623" x2="25.1629" y2="47.5882" gradientUnits="userSpaceOnUse">
<stop offset="0.13" stop-color="#1E1E1E"/>
<stop offset="0.27" stop-color="#2A2A2A"/>
<stop offset="0.395" stop-color="#3C3C3C"/>
<stop offset="0.5" stop-color="#5D5D5D"/>
<stop offset="0.595" stop-color="#3C3C3C"/>
<stop offset="0.75" stop-color="#2A2A2A"/>
<stop offset="0.88" stop-color="#1E1E1E"/>
</linearGradient>
<linearGradient id="paint1_linear_3421_338" x1="13.8324" y1="22.124" x2="33.4939" y2="13.3981" gradientUnits="userSpaceOnUse">
<stop offset="0.13" stop-color="#1E1E1E"/>
<stop offset="0.27" stop-color="#2A2A2A"/>
<stop offset="0.395" stop-color="#3C3C3C"/>
<stop offset="0.5" stop-color="#5D5D5D"/>
<stop offset="0.595" stop-color="#3C3C3C"/>
<stop offset="0.75" stop-color="#2A2A2A"/>
<stop offset="0.88" stop-color="#1E1E1E"/>
</linearGradient>
<radialGradient id="paint2_radial_3421_338" cx="0" cy="0" r="1" gradientUnits="userSpaceOnUse" gradientTransform="translate(29.8247 30.3356) rotate(90) scale(10.8893 11.7463)">
<stop stop-color="#F15523"/>
<stop offset="1" stop-color="#F17F37"/>
</radialGradient>
</defs>
</svg>
