<svg id="svg" version="1.1" xmlns="http://www.w3.org/2000/svg" xmlns:xlink="http://www.w3.org/1999/xlink" width="400" height="400" viewBox="0, 0, 400,400"><g id="svgg"><path id="path0" d="M187.645 58.236 C 156.159 60.431,125.979 69.952,99.939 85.905 L 95.490 88.630 105.847 88.812 C 111.544 88.913,116.365 89.098,116.562 89.223 C 116.759 89.349,118.854 89.716,121.218 90.038 C 129.548 91.173,144.960 94.202,151.298 95.949 C 152.677 96.329,154.772 96.902,155.953 97.224 C 158.830 98.007,163.901 99.644,167.413 100.923 C 183.992 106.962,194.458 115.558,190.457 119.849 C 188.779 121.647,184.756 123.199,176.288 125.313 C 153.524 130.996,148.700 139.153,162.001 149.472 C 170.352 155.950,180.389 161.785,216.294 181.034 C 251.194 199.745,276.944 217.603,290.452 232.463 C 294.191 236.577,294.002 236.660,294.002 230.907 L 294.002 226.303 294.920 225.954 C 296.341 225.413,312.350 225.500,313.069 226.052 C 314.100 226.844,314.067 297.694,313.033 303.133 C 311.843 309.395,309.499 315.512,306.749 319.532 C 306.237 320.280,305.819 321.045,305.819 321.233 C 305.819 321.449,319.228 321.576,341.971 321.576 L 378.122 321.576 378.882 319.875 C 386.245 303.400,393.026 267.174,392.002 249.776 C 391.887 247.807,391.625 243.295,391.422 239.749 C 385.969 144.777,315.085 70.270,219.338 58.873 C 214.886 58.343,192.552 57.894,187.645 58.236 M91.487 91.268 C 56.606 115.575,29.357 151.675,17.409 189.405 C 16.701 191.642,15.943 193.687,15.726 193.949 C 15.509 194.211,15.414 194.632,15.515 194.885 C 15.634 195.181,15.710 195.127,15.728 194.735 C 15.761 194.022,16.653 194.068,24.172 195.175 C 26.732 195.552,30.197 196.033,31.871 196.244 C 33.545 196.455,36.204 196.860,37.780 197.145 C 39.355 197.430,43.465 198.153,46.911 198.750 C 57.845 200.647,74.629 204.353,84.154 206.974 C 86.419 207.598,89.642 208.477,91.316 208.929 C 92.990 209.380,95.730 210.187,97.404 210.721 C 99.078 211.256,101.495 211.995,102.775 212.363 C 104.056 212.732,107.681 213.938,110.833 215.044 C 113.984 216.150,117.368 217.302,118.353 217.604 C 119.338 217.906,120.868 218.450,121.755 218.812 C 122.641 219.174,126.911 220.866,131.244 222.573 C 135.577 224.279,139.324 225.840,139.570 226.042 C 140.124 226.495,140.218 259.544,139.674 262.413 C 137.684 272.909,123.566 275.042,119.034 265.533 C 118.565 264.548,118.181 263.984,118.181 264.279 C 118.180 265.243,120.283 268.511,121.481 269.407 C 126.307 273.020,134.074 272.452,137.556 268.230 C 140.188 265.040,140.182 265.088,140.304 244.777 C 140.377 232.486,140.538 226.378,140.796 226.066 C 141.342 225.409,158.750 225.395,159.251 226.052 C 159.465 226.332,159.514 237.865,159.384 256.938 L 159.176 287.377 150.045 287.565 L 140.913 287.754 149.747 287.834 C 154.605 287.878,158.836 287.816,159.147 287.697 C 159.656 287.501,159.714 284.896,159.714 261.913 C 159.714 247.852,159.834 236.354,159.982 236.361 C 160.130 236.369,161.137 236.919,162.220 237.584 C 163.303 238.250,165.398 239.519,166.876 240.406 C 168.353 241.293,170.850 242.878,172.426 243.928 L 175.291 245.837 175.477 266.607 C 175.580 278.030,175.701 287.400,175.746 287.428 C 176.606 287.963,176.865 287.830,176.389 287.098 C 175.606 285.890,175.423 226.442,176.201 225.937 C 176.488 225.751,179.382 225.607,182.632 225.617 C 189.926 225.640,189.436 225.662,189.436 225.311 C 189.436 225.150,188.446 223.501,187.237 221.646 C 179.138 209.228,165.388 196.252,140.197 177.255 C 104.695 150.483,100.580 145.373,107.544 136.707 C 111.713 131.520,119.223 128.439,138.227 124.119 C 149.975 121.449,153.626 119.478,153.626 115.807 C 153.626 106.697,131.849 96.462,102.238 91.655 C 99.875 91.271,97.699 90.862,97.404 90.745 C 95.152 89.855,93.277 90.020,91.487 91.268 M14.177 198.957 C 13.811 200.233,13.595 201.359,13.695 201.460 C 13.796 201.561,14.164 200.586,14.514 199.294 C 14.863 198.003,15.080 196.876,14.995 196.792 C 14.910 196.707,14.542 197.681,14.177 198.957 M12.590 205.120 C 11.660 208.914,11.621 209.686,12.500 206.940 C 13.140 204.938,13.731 201.970,13.490 201.970 C 13.420 201.970,13.015 203.387,12.590 205.120 M348.678 206.189 C 349.360 206.623,349.435 287.155,348.754 287.587 C 348.037 288.041,331.002 288.001,330.147 287.543 C 329.288 287.084,329.030 207.192,329.884 206.338 C 330.369 205.853,347.929 205.713,348.678 206.189 M10.971 212.582 C 10.844 213.506,10.810 214.331,10.894 214.415 C 10.978 214.500,11.160 213.821,11.296 212.908 C 11.433 211.994,11.468 211.170,11.373 211.075 C 11.279 210.980,11.098 211.659,10.971 212.582 M53.954 211.161 C 53.823 211.292,53.715 214.589,53.715 218.488 L 53.715 225.576 50.582 225.703 L 47.449 225.830 50.671 225.807 L 53.894 225.783 54.073 218.621 L 54.252 211.459 63.621 211.364 L 72.989 211.268 73.351 212.259 C 73.550 212.804,73.725 213.038,73.741 212.779 C 73.850 210.951,73.693 210.922,63.610 210.922 C 58.431 210.922,54.085 211.030,53.954 211.161 M73.551 219.158 C 73.551 221.817,73.608 222.905,73.676 221.576 C 73.745 220.246,73.745 218.071,73.676 216.741 C 73.608 215.412,73.551 216.500,73.551 219.158 M10.206 216.294 C 10.068 217.108,10.031 217.849,10.123 217.941 C 10.214 218.033,10.397 217.437,10.528 216.616 C 10.659 215.795,10.697 215.054,10.611 214.968 C 10.526 214.883,10.343 215.479,10.206 216.294 M9.167 223.312 C 9.033 224.623,8.996 225.767,9.085 225.857 C 9.175 225.946,9.362 224.951,9.502 223.647 C 9.641 222.342,9.678 221.197,9.584 221.103 C 9.489 221.008,9.302 222.002,9.167 223.312 M73.460 224.978 C 73.420 225.786,73.556 225.955,74.217 225.921 C 74.788 225.891,74.846 225.833,74.418 225.720 C 74.085 225.632,73.745 225.208,73.661 224.777 C 73.535 224.131,73.500 224.167,73.460 224.978 M79.833 225.872 C 82.615 225.937,84.843 226.149,85.115 226.375 C 85.416 226.625,85.586 226.635,85.586 226.403 C 85.586 225.738,84.495 225.604,79.738 225.682 L 75.022 225.761 79.833 225.872 M98.478 225.955 C 97.834 226.361,97.529 253.527,98.077 261.594 C 98.312 265.035,98.391 261.087,98.381 246.447 C 98.373 234.101,98.499 226.514,98.716 226.298 C 98.928 226.086,102.624 225.987,108.171 226.046 L 117.278 226.141 117.463 243.868 L 117.647 261.594 117.731 244.029 C 117.795 230.749,117.711 226.359,117.386 226.034 C 116.855 225.503,99.309 225.429,98.478 225.955 M46.413 226.529 C 46.100 227.342,46.154 241.458,46.471 241.957 C 46.629 242.204,47.901 242.409,49.599 242.460 C 51.174 242.507,52.744 242.612,53.089 242.693 C 53.671 242.831,53.717 243.783,53.742 256.157 C 53.756 263.480,53.877 270.197,54.010 271.083 C 54.144 271.970,54.199 265.927,54.135 257.656 C 54.070 249.385,53.936 242.536,53.838 242.437 C 53.740 242.337,52.100 242.175,50.196 242.077 L 46.732 241.898 46.635 234.423 C 46.568 229.212,46.662 226.800,46.948 226.456 C 47.200 226.152,47.218 225.962,46.994 225.962 C 46.794 225.962,46.532 226.217,46.413 226.529 M8.427 228.660 C 8.288 229.965,8.249 231.107,8.340 231.199 C 8.432 231.291,8.622 230.299,8.762 228.994 C 8.901 227.690,8.940 226.547,8.848 226.455 C 8.757 226.363,8.567 227.355,8.427 228.660 M7.976 234.199 C 7.976 235.085,8.046 235.448,8.131 235.004 C 8.216 234.561,8.216 233.836,8.131 233.393 C 8.046 232.950,7.976 233.312,7.976 234.199 M7.678 247.628 C 7.678 253.339,7.728 255.626,7.788 252.709 C 7.848 249.791,7.848 245.118,7.788 242.324 C 7.727 239.529,7.678 241.916,7.678 247.628 M79.528 242.077 C 74.729 242.223,73.616 242.355,73.471 242.793 C 73.323 243.243,73.386 243.254,73.858 242.865 C 74.278 242.519,75.807 242.423,79.812 242.491 C 84.376 242.568,86.250 242.404,85.557 241.987 C 85.474 241.938,82.762 241.979,79.528 242.077 M195.797 250.671 C 195.652 251.164,195.552 253.259,195.575 255.327 L 195.617 259.087 195.936 256.401 C 196.311 253.235,196.215 249.252,195.797 250.671 M7.986 262.489 C 7.986 263.572,8.053 264.015,8.135 263.474 C 8.217 262.932,8.217 262.046,8.135 261.504 C 8.053 260.962,7.986 261.406,7.986 262.489 M8.318 267.323 C 8.308 268.111,8.425 269.561,8.578 270.546 C 8.801 271.981,8.859 272.088,8.869 271.083 C 8.876 270.394,8.759 268.944,8.609 267.860 C 8.372 266.145,8.335 266.076,8.318 267.323 M73.460 267.154 C 73.348 270.036,74.822 270.827,80.752 271.071 L 85.407 271.262 85.407 279.320 L 85.407 287.377 79.141 287.569 L 72.874 287.761 78.979 287.837 C 86.649 287.934,85.944 288.782,85.944 279.456 C 85.944 269.851,86.396 270.725,81.437 270.725 C 75.526 270.725,74.191 270.049,73.655 266.786 C 73.546 266.118,73.496 266.211,73.460 267.154 M98.562 267.323 C 98.562 267.914,98.686 268.881,98.836 269.472 C 99.215 270.961,99.232 269.495,98.857 267.681 C 98.608 266.477,98.561 266.420,98.562 267.323 M99.407 271.799 C 100.088 275.643,106.554 284.729,108.573 284.680 C 108.831 284.674,108.559 284.323,107.968 283.900 C 104.777 281.618,101.826 277.520,100.108 272.984 C 99.552 271.516,99.273 271.045,99.407 271.799 M9.036 273.590 C 9.036 274.279,9.109 274.561,9.199 274.217 C 9.289 273.872,9.289 273.308,9.199 272.963 C 9.109 272.619,9.036 272.901,9.036 273.590 M54.454 273.313 C 54.277 278.185,61.275 285.537,67.144 286.646 C 67.735 286.757,67.411 286.547,66.424 286.179 C 60.472 283.958,57.151 280.701,55.355 275.324 C 54.872 273.878,54.466 272.973,54.454 273.313 M9.408 276.455 C 9.408 277.341,9.478 277.704,9.563 277.261 C 9.649 276.817,9.649 276.092,9.563 275.649 C 9.478 275.206,9.408 275.568,9.408 276.455 M137.779 282.328 C 136.646 283.373,134.793 284.732,133.661 285.346 C 132.529 285.960,131.775 286.467,131.985 286.472 C 132.713 286.490,136.800 283.790,138.406 282.229 L 140.018 280.662 140.018 283.909 C 140.018 285.695,140.139 287.231,140.286 287.323 C 140.434 287.415,140.504 285.893,140.442 283.942 C 140.310 279.809,140.429 279.881,137.779 282.328 M10.085 281.289 C 10.077 281.683,10.369 283.456,10.734 285.228 C 11.098 287.001,11.403 288.048,11.412 287.556 C 11.420 287.064,11.128 285.291,10.763 283.617 C 10.398 281.943,10.093 280.895,10.085 281.289 M109.887 285.387 C 110.352 285.792,110.916 286.121,111.141 286.118 C 111.568 286.112,110.973 285.638,109.758 285.017 C 109.195 284.729,109.223 284.808,109.887 285.387 M112.981 286.806 C 113.769 287.186,115.058 287.591,115.846 287.707 C 117.238 287.910,116.824 287.752,112.265 286.337 C 111.871 286.214,112.193 286.425,112.981 286.806 M129.633 287.019 C 128.944 287.284,128.621 287.506,128.917 287.513 C 129.212 287.519,129.937 287.302,130.528 287.032 C 131.911 286.398,131.268 286.389,129.633 287.019 M69.293 287.180 C 70.397 287.479,72.931 287.661,72.665 287.422 C 72.583 287.348,71.549 287.198,70.367 287.088 C 68.954 286.956,68.586 286.988,69.293 287.180 M179.329 287.819 C 180.171 287.894,181.461 287.893,182.194 287.816 C 182.927 287.739,182.238 287.677,180.662 287.679 C 179.087 287.680,178.487 287.743,179.329 287.819 M118.084 288.167 C 118.527 288.252,119.252 288.252,119.696 288.167 C 120.139 288.081,119.776 288.012,118.890 288.012 C 118.004 288.012,117.641 288.081,118.084 288.167 M124.530 288.167 C 124.973 288.252,125.698 288.252,126.141 288.167 C 126.585 288.081,126.222 288.012,125.336 288.012 C 124.449 288.012,124.087 288.081,124.530 288.167 M11.861 290.779 C 11.846 291.074,12.148 292.444,12.533 293.823 C 13.062 295.720,13.180 295.942,13.018 294.735 C 12.778 292.942,11.903 289.951,11.861 290.779 M104.504 321.486 C 115.007 321.539,132.088 321.539,142.463 321.486 C 152.837 321.433,144.244 321.390,123.366 321.390 C 102.489 321.390,94.001 321.433,104.504 321.486 " stroke="none" fill="#df5656" fill-rule="evenodd"></path><path id="path1" d="M94.275 89.441 C 94.007 89.623,95.845 90.065,98.930 90.561 C 127.919 95.225,148.611 103.675,153.234 112.737 C 156.005 118.167,152.040 121.403,139.123 124.255 C 114.666 129.655,105.271 134.826,105.286 142.877 C 105.297 149.368,110.781 154.711,140.197 176.895 C 166.784 196.946,179.995 209.552,188.348 222.841 L 190.422 226.141 192.704 226.321 L 194.987 226.500 195.089 229.956 L 195.191 233.412 196.910 231.746 C 206.302 222.650,224.044 223.812,231.625 234.020 C 236.569 240.676,236.885 242.663,236.885 267.144 L 236.885 287.019 227.484 287.114 L 218.084 287.210 218.081 271.179 C 218.078 250.589,217.875 248.879,214.990 245.089 C 211.562 240.586,202.285 240.547,198.163 245.019 L 196.716 246.588 196.455 251.942 C 196.311 254.887,196.029 258.183,195.827 259.266 C 195.625 260.349,195.353 267.037,195.223 274.127 L 194.987 287.019 191.633 287.198 L 188.280 287.377 185.887 292.042 C 180.435 302.673,172.880 312.284,164.011 319.873 L 162.041 321.558 233.303 321.561 C 272.498 321.563,304.738 321.446,304.948 321.302 C 305.539 320.894,307.393 318.044,308.614 315.667 C 312.073 308.931,313.862 300.306,313.628 291.495 L 313.518 287.377 303.939 287.282 L 294.360 287.186 294.360 283.581 L 294.360 279.976 292.171 281.956 C 281.026 292.042,262.225 289.121,255.617 276.276 C 252.634 270.477,252.654 270.662,252.538 247.180 L 252.435 226.321 261.923 226.321 L 271.411 226.321 271.516 245.031 L 271.620 263.742 272.473 265.629 C 276.445 274.418,290.558 273.884,293.538 264.832 C 294.035 263.324,294.156 260.923,294.274 250.275 L 294.415 237.525 292.527 235.235 C 280.729 220.928,256.123 203.263,221.576 184.296 C 209.858 177.863,204.894 175.161,201.074 173.135 C 165.909 154.484,154.682 146.317,154.708 139.405 C 154.731 133.392,160.078 129.360,172.426 126.044 C 188.823 121.641,190.868 120.720,190.868 117.733 C 190.868 108.291,160.937 96.600,120.813 90.370 C 114.516 89.392,95.338 88.721,94.275 89.441 " stroke="none" fill="#050505" fill-rule="evenodd"></path><path id="path2" d="M184.244 57.297 C 174.367 58.410,171.472 58.769,169.740 59.096 C 168.657 59.300,166.321 59.703,164.548 59.990 C 162.775 60.277,160.600 60.687,159.714 60.899 C 158.827 61.112,156.732 61.575,155.058 61.926 C 153.384 62.278,151.243 62.831,150.301 63.154 C 149.358 63.478,148.364 63.742,148.092 63.742 C 147.525 63.742,139.760 66.151,138.939 66.581 C 138.641 66.737,137.495 67.127,136.392 67.448 C 135.289 67.768,133.921 68.273,133.353 68.570 C 132.784 68.867,132.071 69.110,131.768 69.111 C 131.465 69.113,130.592 69.432,129.827 69.822 C 129.063 70.212,127.861 70.715,127.156 70.942 C 126.450 71.168,124.987 71.748,123.903 72.230 C 122.820 72.713,121.301 73.377,120.528 73.707 C 118.736 74.470,107.482 80.144,105.053 81.509 C 104.040 82.077,102.559 82.904,101.761 83.345 C 100.963 83.786,99.697 84.555,98.947 85.052 C 98.196 85.550,97.341 86.114,97.046 86.304 C 96.750 86.495,95.783 87.133,94.897 87.723 C 94.011 88.313,92.934 88.799,92.504 88.803 C 92.039 88.807,91.630 89.101,91.494 89.529 C 91.368 89.926,90.753 90.512,90.127 90.833 C 89.501 91.154,88.908 91.518,88.809 91.643 C 88.711 91.768,88.151 92.175,87.565 92.549 C 86.980 92.923,86.335 93.360,86.133 93.522 C 85.931 93.683,83.509 95.593,80.752 97.766 C 77.995 99.939,75.183 102.156,74.504 102.694 C 69.410 106.726,58.151 117.957,52.883 124.261 C 52.142 125.148,51.241 126.195,50.881 126.589 C 50.093 127.452,45.234 133.724,42.921 136.865 C 35.239 147.297,27.267 161.333,22.214 173.321 C 21.591 174.799,20.854 176.491,20.577 177.081 C 19.579 179.205,17.403 185.119,16.097 189.257 C 14.003 195.893,13.134 198.844,12.566 201.253 C 12.218 202.731,11.751 204.503,11.527 205.192 C 11.304 205.882,10.875 207.878,10.573 209.629 C 10.272 211.379,9.857 213.394,9.650 214.105 C 9.318 215.246,8.584 220.014,7.524 227.912 C 6.443 235.969,6.435 260.143,7.510 270.009 C 8.115 275.565,9.285 283.777,9.658 285.089 C 9.860 285.801,10.274 287.815,10.577 289.566 C 10.881 291.316,11.362 293.554,11.647 294.539 C 11.932 295.524,12.491 297.619,12.889 299.194 C 14.777 306.669,15.080 307.765,15.357 308.122 C 15.520 308.333,15.850 309.311,16.090 310.295 C 16.330 311.280,16.742 312.569,17.005 313.160 C 17.269 313.751,17.761 315.121,18.100 316.204 C 18.439 317.287,18.839 318.335,18.990 318.532 C 19.140 318.729,19.467 319.575,19.715 320.412 C 19.964 321.249,20.389 321.934,20.660 321.934 C 21.017 321.934,21.062 321.760,20.823 321.307 C 19.075 317.992,14.731 304.190,12.509 294.897 C -5.927 217.763,25.602 135.277,90.174 91.710 C 91.417 90.871,92.522 89.956,92.630 89.676 C 92.737 89.396,93.071 89.167,93.371 89.167 C 93.671 89.167,95.950 87.900,98.435 86.350 C 132.461 65.140,173.037 55.137,213.429 58.001 C 219.274 58.415,225.059 58.998,225.962 59.263 C 226.258 59.349,228.272 59.674,230.439 59.985 C 236.098 60.796,246.836 63.236,254.073 65.355 C 310.361 81.837,357.749 125.189,378.746 179.409 C 379.623 181.674,380.487 183.850,380.665 184.244 C 382.771 188.888,387.602 207.092,389.299 216.775 C 392.123 232.890,393.364 261.590,391.536 268.487 C 391.418 268.930,391.484 269.293,391.681 269.293 C 393.030 269.293,393.348 245.325,392.142 234.557 C 391.933 232.686,391.517 228.712,391.218 225.726 C 390.919 222.741,390.529 219.840,390.351 219.281 C 390.172 218.721,389.843 216.893,389.620 215.219 C 389.396 213.545,389.040 211.531,388.829 210.743 C 388.617 209.955,388.079 207.699,387.633 205.730 C 386.463 200.556,384.061 191.961,383.030 189.257 C 382.730 188.469,382.477 187.621,382.469 187.373 C 382.460 187.125,382.145 186.238,381.769 185.403 C 381.392 184.569,380.807 182.999,380.468 181.916 C 380.129 180.833,379.733 179.785,379.587 179.588 C 379.442 179.391,379.118 178.585,378.866 177.798 C 378.614 177.010,378.110 175.804,377.745 175.117 C 377.380 174.431,377.081 173.720,377.081 173.539 C 377.081 172.869,369.404 157.228,368.889 156.849 C 368.756 156.750,368.344 155.985,367.975 155.148 C 367.606 154.311,367.167 153.626,367.000 153.626 C 366.833 153.626,366.690 153.424,366.681 153.178 C 366.673 152.932,365.949 151.603,365.073 150.224 C 364.197 148.845,363.135 147.073,362.714 146.285 C 362.293 145.497,361.727 144.723,361.457 144.566 C 361.188 144.408,360.967 144.122,360.967 143.931 C 360.967 143.739,360.312 142.659,359.512 141.531 C 358.711 140.403,357.728 138.957,357.328 138.317 C 356.927 137.677,356.454 137.153,356.276 137.153 C 356.099 137.153,355.953 136.968,355.953 136.742 C 355.953 136.516,355.389 135.643,354.700 134.802 C 354.011 133.961,353.447 133.104,353.447 132.898 C 353.447 132.692,353.124 132.350,352.731 132.140 C 352.337 131.929,352.014 131.566,352.014 131.334 C 352.014 131.102,351.696 130.584,351.308 130.183 C 350.548 129.398,348.408 126.890,346.106 124.084 C 345.318 123.124,343.908 121.569,342.972 120.628 C 342.037 119.688,341.271 118.799,341.271 118.653 C 341.271 118.405,333.417 110.621,329.585 107.073 C 328.628 106.186,326.152 104.049,324.084 102.324 C 322.015 100.598,319.994 98.866,319.593 98.474 C 319.193 98.082,318.675 97.762,318.442 97.762 C 318.210 97.762,317.847 97.440,317.637 97.046 C 317.426 96.652,317.085 96.329,316.878 96.329 C 316.672 96.329,315.815 95.765,314.974 95.076 C 314.133 94.387,313.260 93.823,313.034 93.823 C 312.808 93.823,312.623 93.678,312.623 93.500 C 312.623 93.323,312.099 92.848,311.459 92.445 C 310.819 92.043,309.651 91.227,308.863 90.633 C 308.075 90.039,306.962 89.288,306.390 88.964 C 305.818 88.640,305.173 88.230,304.958 88.054 C 303.942 87.221,300.785 85.228,300.482 85.228 C 300.294 85.228,299.920 85.007,299.650 84.738 C 299.380 84.468,298.603 83.965,297.923 83.620 C 297.244 83.275,296.446 82.798,296.150 82.558 C 295.855 82.319,295.049 81.905,294.360 81.637 C 293.671 81.370,293.014 81.017,292.901 80.853 C 292.595 80.410,279.996 74.127,279.413 74.127 C 279.137 74.127,278.689 73.906,278.419 73.635 C 278.148 73.365,277.193 72.927,276.296 72.662 C 275.398 72.397,274.664 72.061,274.664 71.914 C 274.664 71.768,273.838 71.403,272.828 71.103 C 271.818 70.803,270.810 70.416,270.590 70.243 C 270.369 70.070,269.221 69.634,268.039 69.275 C 266.858 68.915,265.810 68.523,265.712 68.403 C 265.613 68.282,264.485 67.881,263.205 67.512 C 261.925 67.142,260.713 66.718,260.512 66.569 C 260.312 66.420,259.023 66.022,257.648 65.684 C 256.273 65.346,254.987 64.954,254.790 64.813 C 254.593 64.672,253.223 64.280,251.746 63.943 C 250.269 63.605,248.738 63.183,248.344 63.005 C 247.950 62.826,246.338 62.425,244.763 62.112 C 243.187 61.800,241.253 61.338,240.466 61.085 C 239.678 60.833,237.583 60.428,235.810 60.184 C 234.038 59.940,232.234 59.601,231.802 59.431 C 231.369 59.260,228.549 58.868,225.535 58.560 C 222.520 58.252,219.329 57.816,218.442 57.592 C 216.528 57.108,188.102 56.862,184.244 57.297 M330.528 206.599 C 330.056 206.914,329.991 211.803,329.991 246.988 L 329.991 287.019 339.391 287.114 L 348.791 287.210 348.791 246.917 L 348.791 206.625 341.182 206.621 C 336.996 206.619,333.008 206.532,332.319 206.429 C 331.629 206.325,330.824 206.402,330.528 206.599 M54.426 218.526 C 54.419 226.825,54.699 226.266,50.480 226.396 L 47.090 226.500 47.090 234.199 L 47.090 241.898 50.671 242.077 L 54.252 242.256 54.465 257.296 C 54.720 275.291,55.004 276.753,59.121 281.259 C 62.994 285.497,67.395 286.889,77.619 287.112 L 85.228 287.278 85.228 279.396 L 85.228 271.515 80.842 271.380 C 72.798 271.131,73.054 271.674,73.053 254.888 L 73.053 242.094 79.051 241.996 L 85.049 241.898 85.049 234.199 L 85.049 226.500 79.141 226.321 L 73.232 226.141 73.053 218.979 L 72.874 211.817 63.653 211.722 L 54.432 211.626 54.426 218.526 M208.713 226.329 C 204.009 227.123,200.283 228.969,197.124 232.071 C 194.771 234.382,194.808 234.409,194.808 230.314 L 194.808 226.787 191.316 226.555 C 189.396 226.428,185.205 226.323,182.003 226.322 L 176.182 226.321 176.274 256.670 L 176.365 287.019 179.051 287.137 C 180.528 287.202,184.670 287.145,188.254 287.009 L 194.771 286.764 194.898 268.807 C 195.039 248.833,195.114 248.172,197.611 245.019 C 201.568 240.023,211.271 240.061,215.391 245.089 C 218.202 248.519,218.215 248.620,218.360 268.845 L 218.490 286.840 227.379 286.840 L 236.268 286.840 236.418 269.919 C 236.595 249.915,236.406 245.939,235.076 241.731 C 231.462 230.289,221.104 224.238,208.713 226.329 M98.621 226.822 C 98.513 227.104,98.483 236.172,98.554 246.971 C 98.699 268.973,98.790 269.838,101.550 275.560 C 107.969 288.866,126.752 292.099,137.962 281.826 L 140.376 279.614 140.381 282.958 C 140.389 287.602,139.512 287.226,150.070 287.115 L 159.176 287.019 159.176 256.759 L 159.176 226.500 149.866 226.500 L 140.555 226.500 140.464 244.584 C 140.390 259.225,140.273 263.013,139.847 264.481 C 136.949 274.464,122.048 274.910,118.133 265.131 C 117.296 263.041,117.289 262.895,117.105 244.763 L 116.920 226.500 107.869 226.404 C 100.275 226.324,98.787 226.391,98.621 226.822 M294.652 226.589 C 294.616 226.737,294.576 235.076,294.563 245.121 L 294.539 263.384 293.415 265.712 C 288.702 275.474,274.636 274.420,271.630 264.079 C 271.172 262.506,271.083 259.300,271.083 244.439 L 271.083 226.679 261.931 226.679 L 252.778 226.679 252.897 247.538 L 253.016 268.397 254.031 271.441 C 259.547 287.980,279.428 293.293,291.891 281.558 C 294.887 278.737,294.718 278.646,294.718 283.080 L 294.718 286.840 303.803 286.840 L 312.887 286.840 313.109 285.497 C 313.232 284.758,313.333 271.141,313.335 255.237 L 313.339 226.321 304.029 226.321 C 298.908 226.321,294.688 226.441,294.652 226.589 M391.454 270.085 C 391.427 270.225,391.087 272.821,390.698 275.853 C 390.308 278.885,389.888 281.631,389.764 281.954 C 389.640 282.278,389.700 282.543,389.897 282.543 C 390.567 282.543,392.038 272.608,391.659 270.638 C 391.573 270.194,391.481 269.945,391.454 270.085 M389.311 284.870 C 386.680 297.923,383.762 308.331,379.848 318.621 C 379.155 320.443,378.732 321.934,378.909 321.934 C 379.086 321.934,379.230 321.692,379.230 321.397 C 379.230 321.101,379.370 320.859,379.541 320.859 C 379.712 320.859,380.122 319.898,380.451 318.723 C 380.781 317.547,381.187 316.502,381.353 316.399 C 381.519 316.296,381.946 315.123,382.301 313.791 C 382.656 312.459,383.047 311.289,383.169 311.191 C 383.292 311.092,383.687 309.884,384.048 308.505 C 384.409 307.126,384.824 305.837,384.972 305.640 C 385.119 305.443,385.520 303.993,385.862 302.417 C 386.204 300.842,386.602 299.391,386.746 299.194 C 386.891 298.997,387.295 297.305,387.645 295.434 C 387.996 293.563,388.403 291.871,388.550 291.674 C 388.929 291.166,390.061 284.138,389.888 283.364 C 389.809 283.011,389.549 283.688,389.311 284.870 " stroke="none" fill="#fbfafa" fill-rule="evenodd"></path><path id="path3" d="M192.725 57.680 C 157.983 59.016,124.878 69.310,96.329 87.657 C 92.128 90.356,94.537 89.235,99.517 86.172 C 130.123 67.350,162.910 58.206,199.821 58.198 C 213.460 58.195,215.636 58.320,225.425 59.665 C 316.952 72.246,386.113 147.276,391.422 239.749 C 391.625 243.295,391.887 247.807,392.002 249.776 C 393.026 267.173,386.245 303.400,378.883 319.874 L 378.123 321.574 199.669 321.575 L 21.216 321.576 20.408 319.416 C 19.963 318.227,19.533 317.322,19.451 317.403 C 19.370 317.485,19.684 318.497,20.148 319.653 L 20.993 321.755 199.820 321.755 L 378.647 321.755 380.014 318.174 C 384.016 307.684,388.062 292.860,389.787 282.363 C 390.971 275.156,391.578 269.514,392.125 260.644 C 393.526 237.916,387.854 200.100,380.665 184.244 C 380.487 183.850,379.623 181.674,378.746 179.409 C 357.749 125.189,310.361 81.837,254.073 65.355 C 246.737 63.207,236.069 60.789,230.260 59.958 C 227.995 59.634,226.045 59.310,225.926 59.240 C 225.446 58.952,214.679 58.035,209.490 57.840 C 206.437 57.726,202.972 57.583,201.791 57.523 C 200.609 57.463,196.529 57.534,192.725 57.680 M92.630 89.676 C 92.522 89.956,91.417 90.871,90.174 91.710 C 61.548 111.025,35.306 143.419,21.997 175.875 C 18.447 184.533,15.054 194.346,15.763 193.908 C 15.927 193.807,16.570 192.074,17.191 190.058 C 28.612 152.981,57.714 114.130,90.824 91.758 C 92.812 90.414,93.924 89.167,93.134 89.167 C 92.964 89.167,92.737 89.396,92.630 89.676 M14.526 196.620 C 14.187 197.825,13.977 198.877,14.059 198.959 C 14.140 199.040,14.481 198.119,14.816 196.911 C 15.152 195.704,15.362 194.652,15.283 194.573 C 15.205 194.494,14.864 195.416,14.526 196.620 M13.096 201.816 C 12.965 202.341,12.926 202.839,13.010 202.924 C 13.095 203.008,13.272 202.648,13.403 202.123 C 13.535 201.598,13.574 201.100,13.489 201.015 C 13.405 200.931,13.228 201.291,13.096 201.816 M329.884 206.338 C 329.030 207.192,329.288 287.084,330.147 287.543 C 331.002 288.001,348.037 288.041,348.754 287.587 C 349.435 287.155,349.360 206.623,348.678 206.189 C 347.929 205.713,330.369 205.853,329.884 206.338 M341.182 206.621 L 348.791 206.625 348.791 246.917 L 348.791 287.210 339.391 287.114 L 329.991 287.019 329.991 246.988 C 329.991 202.692,329.798 206.051,332.319 206.429 C 333.008 206.532,336.996 206.619,341.182 206.621 M11.300 209.331 C 11.165 210.049,11.127 210.709,11.214 210.796 C 11.302 210.884,11.484 210.368,11.618 209.649 C 11.753 208.930,11.792 208.271,11.704 208.183 C 11.617 208.096,11.435 208.612,11.300 209.331 M54.244 211.728 C 54.153 211.974,54.037 215.237,53.986 218.979 L 53.894 225.783 50.690 225.888 C 48.928 225.945,47.276 226.166,47.020 226.379 C 46.503 226.808,46.315 241.529,46.822 241.843 C 46.970 241.934,47.090 238.519,47.090 234.254 L 47.090 226.500 50.480 226.396 C 54.699 226.266,54.419 226.825,54.426 218.526 L 54.432 211.626 63.653 211.722 L 72.874 211.817 73.053 218.979 L 73.232 226.141 79.141 226.321 L 85.049 226.500 85.049 234.254 C 85.049 238.519,85.170 241.934,85.318 241.843 C 85.793 241.549,85.640 226.875,85.157 226.392 C 84.859 226.094,82.992 225.962,79.069 225.962 L 73.411 225.962 73.411 219.188 C 73.411 215.462,73.313 212.158,73.194 211.847 C 72.904 211.091,54.521 210.976,54.244 211.728 M9.490 218.800 C 9.351 219.810,9.313 220.712,9.405 220.805 C 9.498 220.897,9.683 220.143,9.818 219.129 C 9.953 218.114,9.991 217.212,9.902 217.124 C 9.814 217.036,9.629 217.790,9.490 218.800 M9.043 222.560 C 9.047 223.348,9.120 223.628,9.206 223.183 C 9.291 222.737,9.288 222.093,9.199 221.751 C 9.109 221.408,9.039 221.773,9.043 222.560 M8.678 225.246 C 8.678 225.936,8.751 226.218,8.841 225.873 C 8.931 225.528,8.931 224.964,8.841 224.620 C 8.751 224.275,8.678 224.557,8.678 225.246 M140.808 226.052 C 140.512 226.408,142.351 226.500,149.806 226.500 L 159.176 226.500 159.371 231.334 L 159.566 236.168 159.640 231.316 C 159.691 227.932,159.584 226.334,159.284 226.034 C 158.657 225.407,141.330 225.424,140.808 226.052 M176.201 225.939 C 175.706 226.259,175.541 285.955,176.034 286.448 C 176.118 286.532,176.186 273.038,176.186 256.461 L 176.186 226.321 182.005 226.322 C 185.206 226.323,189.396 226.428,191.316 226.555 L 194.808 226.787 194.808 230.314 C 194.808 234.409,194.771 234.382,197.124 232.071 C 198.115 231.098,199.883 229.728,201.053 229.027 C 202.223 228.326,203.014 227.753,202.810 227.753 C 202.133 227.753,198.233 230.477,196.701 232.021 L 195.192 233.540 195.089 230.020 L 194.987 226.500 192.673 226.391 C 191.400 226.331,190.191 226.143,189.985 225.972 C 189.475 225.549,176.853 225.518,176.201 225.939 M207.831 226.107 C 206.426 226.376,204.975 226.784,204.608 227.013 C 203.835 227.494,204.010 227.465,206.983 226.623 C 209.291 225.969,217.727 226.068,220.232 226.778 C 221.315 227.085,222.258 227.280,222.327 227.211 C 223.343 226.194,211.919 225.324,207.831 226.107 M294.827 225.966 C 294.002 226.299,293.395 235.208,294.091 236.771 C 294.239 237.103,294.359 242.582,294.358 248.947 C 294.356 259.325,294.164 262.898,293.488 265.175 C 293.371 265.568,293.559 265.327,293.907 264.637 C 294.486 263.488,294.539 261.852,294.539 244.942 L 294.539 226.500 303.939 226.404 L 313.339 226.309 313.335 255.231 C 313.333 271.139,313.232 284.758,313.109 285.497 L 312.887 286.840 303.803 286.840 L 294.718 286.840 294.718 283.080 C 294.718 278.646,294.888 278.737,291.886 281.558 C 289.110 284.166,286.639 285.593,282.901 286.746 C 281.407 287.207,280.838 287.479,281.618 287.359 C 285.035 286.833,289.721 284.317,292.547 281.490 C 294.428 279.610,294.318 279.491,294.436 283.527 L 294.539 287.019 304.118 287.114 L 313.697 287.210 313.697 256.778 C 313.697 227.057,313.681 226.337,313.005 225.975 C 312.152 225.518,295.958 225.511,294.827 225.966 M98.716 226.225 C 98.623 226.376,102.680 226.500,107.733 226.500 L 116.920 226.500 117.106 243.868 L 117.292 261.235 117.285 243.688 L 117.278 226.141 108.082 226.046 C 103.024 225.993,98.809 226.074,98.716 226.225 M252.701 226.559 C 252.384 226.876,252.432 265.489,252.751 267.291 C 252.888 268.062,252.949 259.239,252.889 247.685 L 252.778 226.679 261.931 226.679 L 271.083 226.679 271.108 244.673 C 271.122 254.570,271.243 262.944,271.377 263.282 C 271.643 263.953,271.534 227.498,271.269 226.768 C 271.093 226.285,253.177 226.083,252.701 226.559 M222.769 227.530 C 223.136 227.861,225.962 229.181,225.962 229.021 C 225.962 228.817,223.260 227.395,222.873 227.395 C 222.734 227.395,222.687 227.456,222.769 227.530 M229.091 231.902 C 230.667 233.461,232.311 235.436,232.745 236.293 C 233.178 237.149,233.626 237.755,233.741 237.641 C 234.299 237.083,229.824 231.631,227.379 229.890 C 226.744 229.438,227.514 230.344,229.091 231.902 M7.976 231.334 C 7.976 232.220,8.046 232.583,8.131 232.140 C 8.216 231.697,8.216 230.971,8.131 230.528 C 8.046 230.085,7.976 230.448,7.976 231.334 M98.222 232.945 C 98.225 233.930,98.295 234.291,98.377 233.746 C 98.459 233.202,98.457 232.396,98.372 231.956 C 98.287 231.515,98.220 231.961,98.222 232.945 M7.635 235.273 C 7.635 236.553,7.700 237.077,7.779 236.437 C 7.859 235.797,7.859 234.749,7.779 234.109 C 7.700 233.469,7.635 233.993,7.635 235.273 M140.459 238.854 C 140.459 239.543,140.533 239.825,140.623 239.481 C 140.713 239.136,140.713 238.572,140.623 238.227 C 140.533 237.883,140.459 238.165,140.459 238.854 M7.318 247.449 C 7.318 252.668,7.369 254.803,7.430 252.193 C 7.491 249.584,7.491 245.313,7.430 242.704 C 7.369 240.094,7.318 242.229,7.318 247.449 M234.416 239.570 C 234.550 240.063,234.877 241.030,235.144 241.719 L 235.629 242.972 235.409 241.719 C 235.287 241.030,234.960 240.063,234.680 239.570 L 234.173 238.675 234.416 239.570 M202.286 241.855 C 195.946 244.120,195.069 246.615,194.968 262.668 L 194.893 274.485 195.191 263.384 C 195.355 257.278,195.649 251.558,195.845 250.671 C 196.041 249.785,196.309 248.513,196.439 247.845 C 197.936 240.205,212.017 239.540,216.213 246.911 C 216.886 248.093,217.340 248.765,217.223 248.404 C 217.106 248.043,217.010 247.615,217.010 247.451 C 217.010 246.468,213.984 243.485,211.962 242.474 C 209.454 241.221,204.879 240.928,202.286 241.855 M53.597 242.322 C 53.903 242.540,54.053 246.671,54.151 257.479 C 54.248 268.297,54.405 272.580,54.726 273.232 L 55.168 274.127 54.924 273.232 C 54.789 272.739,54.583 265.582,54.466 257.326 C 54.282 244.409,54.178 242.295,53.715 242.169 C 53.348 242.069,53.311 242.117,53.597 242.322 M73.131 255.058 C 73.173 262.198,73.253 266.025,73.308 263.563 C 73.560 252.272,73.566 242.076,73.321 242.077 C 73.174 242.077,73.088 247.919,73.131 255.058 M236.202 246.553 C 236.471 249.296,236.535 256.266,236.437 272.247 L 236.347 286.840 227.395 286.840 L 218.442 286.840 218.411 270.278 C 218.394 261.168,218.241 252.910,218.071 251.925 C 217.789 250.293,217.776 250.357,217.920 252.641 C 218.008 254.020,218.080 262.362,218.082 271.179 L 218.084 287.210 227.484 287.114 L 236.885 287.019 236.848 266.965 C 236.824 253.389,236.685 246.564,236.419 245.837 C 236.066 244.870,236.044 244.941,236.202 246.553 M7.559 260.728 C 7.580 262.386,7.721 264.709,7.871 265.891 C 8.039 267.206,8.074 266.095,7.962 263.026 C 7.761 257.489,7.498 255.991,7.559 260.728 M117.483 262.340 C 117.496 262.914,117.651 263.706,117.825 264.100 C 118.037 264.579,118.071 264.281,117.929 263.205 C 117.678 261.307,117.447 260.859,117.483 262.340 M98.576 264.996 C 98.576 265.882,98.645 266.244,98.731 265.801 C 98.816 265.358,98.816 264.633,98.731 264.190 C 98.645 263.747,98.576 264.109,98.576 264.996 M139.222 265.256 C 137.651 269.651,134.440 271.620,128.848 271.620 C 126.406 271.620,125.303 271.729,125.804 271.920 C 127.279 272.483,132.543 271.997,134.189 271.145 C 137.089 269.644,140.461 265.428,139.961 263.928 C 139.891 263.719,139.559 264.316,139.222 265.256 M271.803 264.653 C 271.797 265.619,274.079 269.010,275.380 269.969 C 276.505 270.797,276.474 270.733,275.082 269.348 C 274.229 268.499,273.143 266.970,272.669 265.952 C 272.194 264.934,271.805 264.349,271.803 264.653 M118.179 265.175 C 118.169 266.439,120.990 269.773,122.904 270.758 C 124.947 271.809,125.019 271.562,123.008 270.405 C 120.928 269.209,120.355 268.626,119.101 266.428 C 118.596 265.542,118.181 264.978,118.179 265.175 M99.246 269.651 C 99.247 270.143,99.466 271.110,99.731 271.799 C 100.362 273.438,100.367 272.804,99.740 270.546 C 99.452 269.510,99.244 269.133,99.246 269.651 M290.408 269.487 C 289.682 270.362,287.936 271.180,285.765 271.661 C 284.064 272.038,283.967 272.101,285.049 272.124 C 286.824 272.162,291.710 269.747,291.098 269.134 C 290.979 269.015,290.668 269.174,290.408 269.487 M253.562 270.572 C 253.526 271.113,254.662 274.374,254.829 274.207 C 254.904 274.132,254.656 273.196,254.277 272.129 C 253.899 271.061,253.577 270.361,253.562 270.572 M277.309 271.251 C 278.055 271.825,280.797 272.339,281.535 272.044 C 281.794 271.941,281.502 271.843,280.887 271.828 C 280.271 271.812,279.063 271.559,278.201 271.265 C 276.860 270.808,276.731 270.806,277.309 271.251 M81.379 271.346 L 85.228 271.465 85.228 279.323 L 85.228 287.181 78.872 287.292 L 72.516 287.403 78.962 287.390 L 85.407 287.377 85.407 279.320 L 85.407 271.262 81.468 271.245 L 77.529 271.227 81.379 271.346 M8.678 273.232 C 8.678 273.921,8.751 274.203,8.841 273.859 C 8.931 273.514,8.931 272.950,8.841 272.605 C 8.751 272.261,8.678 272.543,8.678 273.232 M9.050 276.097 C 9.050 276.983,9.120 277.346,9.205 276.902 C 9.291 276.459,9.291 275.734,9.205 275.291 C 9.120 274.848,9.050 275.210,9.050 276.097 M255.332 275.517 C 255.326 275.890,256.745 278.245,256.977 278.245 C 257.064 278.245,256.896 277.802,256.602 277.261 C 255.825 275.825,255.339 275.157,255.332 275.517 M55.528 275.832 C 55.248 279.338,64.632 286.949,69.080 286.824 C 69.394 286.815,68.514 286.439,67.125 285.989 C 61.903 284.297,58.459 281.542,56.480 277.473 C 55.968 276.421,55.539 275.682,55.528 275.832 M102.670 278.207 C 103.519 279.813,107.322 283.629,108.880 284.438 C 110.069 285.056,110.083 285.056,109.239 284.438 C 106.545 282.466,104.643 280.563,102.670 277.869 C 102.053 277.026,102.053 277.039,102.670 278.207 M9.394 278.782 C 9.395 279.373,9.518 280.340,9.669 280.931 C 10.048 282.420,10.065 280.955,9.689 279.141 C 9.440 277.936,9.393 277.879,9.394 278.782 M257.788 279.614 C 260.524 283.457,269.013 288.306,271.534 287.466 C 271.744 287.395,270.963 287.131,269.799 286.879 C 266.114 286.080,262.605 284.107,259.672 281.183 C 258.221 279.737,257.373 279.031,257.788 279.614 M137.884 281.888 C 136.509 283.157,134.405 284.602,132.692 285.455 C 131.108 286.243,130.215 286.776,130.707 286.639 C 131.966 286.288,134.617 284.904,135.958 283.898 C 137.485 282.754,140.459 279.998,140.314 279.862 C 140.249 279.802,139.156 280.714,137.884 281.888 M110.295 285.274 C 110.295 285.523,113.595 286.874,113.929 286.761 C 114.093 286.706,113.343 286.313,112.262 285.888 C 111.180 285.463,110.295 285.186,110.295 285.274 M140.468 286.840 C 140.628 287.429,158.473 287.865,159.045 287.294 C 159.197 287.142,155.192 287.065,150.145 287.120 C 142.992 287.200,140.899 287.121,140.646 286.762 C 140.398 286.412,140.356 286.430,140.468 286.840 M176.499 287.297 C 176.652 287.450,179.344 287.530,182.480 287.475 L 188.183 287.375 182.201 287.197 C 178.912 287.099,176.346 287.144,176.499 287.297 M189.884 287.103 C 190.819 287.177,192.350 287.177,193.286 287.103 C 194.221 287.029,193.456 286.969,191.585 286.969 C 189.714 286.969,188.948 287.029,189.884 287.103 M125.694 287.556 L 124.082 287.806 125.515 287.825 C 126.303 287.835,127.350 287.714,127.842 287.556 C 128.973 287.194,128.024 287.194,125.694 287.556 M117.726 287.809 C 118.169 287.894,118.894 287.894,119.338 287.809 C 119.781 287.723,119.418 287.653,118.532 287.653 C 117.645 287.653,117.283 287.723,117.726 287.809 M274.229 287.820 C 275.269 287.893,276.881 287.892,277.810 287.819 C 278.739 287.745,277.887 287.686,275.918 287.687 C 273.948 287.688,273.188 287.748,274.229 287.820 M121.128 288.171 C 121.670 288.253,122.556 288.253,123.098 288.171 C 123.639 288.088,123.196 288.021,122.113 288.021 C 121.030 288.021,120.586 288.088,121.128 288.171 M11.173 288.809 C 11.173 289.203,11.302 289.928,11.459 290.421 C 11.686 291.130,11.746 291.167,11.746 290.600 C 11.746 290.206,11.617 289.481,11.459 288.988 C 11.232 288.279,11.173 288.242,11.173 288.809 M12.719 295.773 C 12.967 297.450,13.624 299.835,13.791 299.668 C 13.866 299.593,13.614 298.408,13.232 297.035 C 12.849 295.662,12.618 295.094,12.719 295.773 M14.351 301.825 C 14.315 302.469,15.427 306.268,15.602 306.093 C 15.677 306.018,15.433 304.918,15.059 303.650 C 14.685 302.381,14.367 301.560,14.351 301.825 M15.792 306.659 C 15.735 307.147,17.256 311.959,17.417 311.798 C 17.497 311.718,17.173 310.460,16.695 309.004 C 16.218 307.548,15.811 306.492,15.792 306.659 M17.636 312.713 C 17.726 312.959,18.082 314.017,18.427 315.063 C 18.771 316.110,19.115 316.904,19.192 316.827 C 19.374 316.645,17.898 312.265,17.655 312.265 C 17.553 312.265,17.545 312.466,17.636 312.713 " stroke="none" fill="#ca9191" fill-rule="evenodd"></path><path id="path4" d="M104.566 89.175 C 116.794 89.457,124.929 90.605,144.136 94.757 C 174.170 101.249,196.453 113.753,189.526 120.227 C 188.787 120.918,188.505 121.317,188.899 121.114 C 196.257 117.332,186.001 107.694,167.413 100.923 C 163.901 99.644,158.830 98.007,155.953 97.224 C 154.772 96.902,152.677 96.329,151.298 95.949 C 145.135 94.250,129.872 91.238,121.397 90.047 C 119.132 89.729,116.312 89.324,115.130 89.146 C 113.948 88.969,108.872 88.852,103.850 88.886 L 94.718 88.948 104.566 89.175 M93.284 89.528 C 92.980 90.020,93.905 90.327,95.135 90.143 C 96.054 90.005,96.032 89.985,94.897 89.932 C 93.945 89.887,93.773 89.789,94.181 89.526 C 94.644 89.226,94.634 89.178,94.112 89.173 C 93.779 89.170,93.407 89.330,93.284 89.528 M97.046 90.626 C 97.538 90.806,99.875 91.268,102.238 91.652 C 104.602 92.036,108.136 92.685,110.091 93.095 C 112.047 93.504,113.810 93.785,114.009 93.719 C 114.699 93.489,98.000 90.181,96.598 90.270 C 96.352 90.286,96.553 90.446,97.046 90.626 M114.705 94.055 C 114.833 94.182,116.511 94.643,118.435 95.079 C 132.635 98.298,144.352 103.672,150.604 109.835 C 151.960 111.172,152.725 111.777,152.305 111.180 C 149.787 107.605,143.818 103.517,136.795 100.558 C 129.716 97.575,113.431 92.780,114.705 94.055 M153.551 115.233 C 153.789 118.530,151.944 120.183,145.845 122.136 C 144.422 122.592,143.324 123.031,143.405 123.113 C 143.627 123.335,148.200 121.772,150.077 120.833 C 153.283 119.229,155.033 115.725,153.687 113.605 C 153.529 113.357,153.468 114.090,153.551 115.233 M186.571 121.934 C 186.079 122.215,185.837 122.446,186.034 122.446 C 186.231 122.446,186.795 122.215,187.287 121.934 C 187.780 121.652,188.021 121.422,187.825 121.422 C 187.628 121.422,187.064 121.652,186.571 121.934 M138.406 124.110 C 136.634 124.572,135.828 124.869,136.616 124.769 C 138.409 124.540,143.317 123.249,142.346 123.261 C 141.952 123.265,140.179 123.648,138.406 124.110 M180.483 123.927 C 179.212 124.359,178.954 124.521,179.754 124.384 C 181.208 124.134,183.775 123.233,182.990 123.247 C 182.695 123.253,181.567 123.559,180.483 123.927 M131.423 125.722 C 130.143 126.093,129.671 126.317,130.375 126.220 C 131.859 126.015,135.084 125.049,134.288 125.048 C 133.993 125.047,132.704 125.351,131.423 125.722 M174.217 125.528 C 172.804 126.017,172.802 126.021,174.038 125.812 C 175.498 125.566,176.992 125.021,176.186 125.028 C 175.891 125.030,175.004 125.256,174.217 125.528 M170.994 126.410 C 170.542 126.604,170.476 126.718,170.815 126.718 C 171.110 126.718,171.674 126.579,172.068 126.410 C 172.519 126.216,172.586 126.102,172.247 126.102 C 171.952 126.102,171.388 126.241,170.994 126.410 M167.122 127.550 C 165.977 127.949,165.103 128.338,165.179 128.414 C 165.256 128.491,166.434 128.164,167.798 127.687 C 169.162 127.211,170.036 126.822,169.740 126.823 C 169.445 126.824,168.267 127.151,167.122 127.550 M123.954 127.537 C 123.292 127.727,122.820 127.953,122.905 128.038 C 122.990 128.123,123.773 127.968,124.645 127.695 C 126.426 127.136,125.824 126.999,123.954 127.537 M118.954 129.328 C 117.906 129.731,117.110 130.121,117.185 130.196 C 117.319 130.331,121.078 128.991,121.367 128.706 C 121.683 128.393,120.783 128.625,118.954 129.328 M162.258 129.637 C 158.059 131.951,153.723 136.654,154.798 137.728 C 154.884 137.814,155.231 137.163,155.568 136.279 C 156.343 134.250,159.132 131.659,162.437 129.896 C 163.795 129.172,164.745 128.578,164.548 128.576 C 164.351 128.573,163.320 129.051,162.258 129.637 M114.434 131.482 C 110.526 133.497,107.287 136.375,106.037 138.944 C 105.544 139.956,105.670 139.808,107.684 137.024 C 108.802 135.479,112.014 133.069,114.861 131.639 C 115.895 131.120,116.741 130.617,116.741 130.522 C 116.741 130.284,116.812 130.255,114.434 131.482 M105.141 140.584 C 104.092 143.320,105.715 147.769,109.062 151.327 L 111.055 153.447 109.016 150.968 C 106.101 147.426,105.164 145.214,105.349 142.316 C 105.504 139.870,105.483 139.693,105.141 140.584 M154.708 141.017 C 154.680 142.653,157.535 146.242,161.263 149.255 C 164.559 151.920,170.457 156.029,170.457 155.661 C 170.457 155.576,169.208 154.652,167.681 153.608 C 160.390 148.621,156.885 145.336,155.425 142.118 C 155.035 141.258,154.712 140.763,154.708 141.017 M111.370 153.926 C 111.370 154.257,114.735 157.354,119.069 161.012 C 122.809 164.168,142.167 178.850,142.167 178.531 C 142.167 178.432,139.548 176.385,136.347 173.981 C 123.007 163.962,116.971 159.118,113.250 155.443 C 112.216 154.422,111.370 153.739,111.370 153.926 M171.352 156.300 C 171.746 156.631,173.196 157.556,174.575 158.355 C 175.953 159.154,177.645 160.135,178.335 160.534 C 179.024 160.934,179.427 161.086,179.230 160.874 C 179.033 160.661,177.502 159.698,175.828 158.735 C 174.154 157.772,172.301 156.695,171.710 156.341 C 170.827 155.813,170.763 155.806,171.352 156.300 M179.767 161.307 C 179.767 161.405,180.251 161.736,180.842 162.041 C 181.432 162.347,181.916 162.516,181.916 162.418 C 181.916 162.319,181.432 161.989,180.842 161.683 C 180.251 161.378,179.767 161.208,179.767 161.307 M182.274 162.743 C 182.274 162.841,182.919 163.251,183.706 163.653 C 184.494 164.055,185.139 164.303,185.139 164.204 C 185.139 164.106,184.494 163.696,183.706 163.295 C 182.919 162.893,182.274 162.644,182.274 162.743 M185.676 164.617 C 185.873 164.815,187.484 165.748,189.257 166.690 C 191.030 167.633,192.319 168.238,192.122 168.035 C 191.925 167.833,190.313 166.900,188.541 165.962 C 186.768 165.024,185.479 164.419,185.676 164.617 M192.659 168.472 C 192.659 168.571,193.303 168.980,194.091 169.382 C 194.879 169.784,195.524 170.032,195.524 169.934 C 195.524 169.836,194.879 169.426,194.091 169.024 C 193.303 168.622,192.659 168.374,192.659 168.472 M196.061 170.358 C 196.258 170.559,198.675 171.896,201.432 173.329 C 204.190 174.762,206.285 175.770,206.088 175.569 C 205.891 175.368,203.474 174.030,200.716 172.597 C 197.959 171.164,195.864 170.156,196.061 170.358 M206.804 176.078 C 207.001 176.277,208.451 177.132,210.027 177.977 C 211.603 178.822,212.731 179.348,212.534 179.146 C 212.337 178.943,210.886 178.089,209.311 177.247 C 207.735 176.404,206.607 175.878,206.804 176.078 M142.525 178.832 C 142.525 178.921,145.143 181.010,148.344 183.475 C 163.196 194.909,174.978 205.786,182.054 214.593 C 184.808 218.021,186.334 219.549,184.020 216.562 C 179.384 210.577,170.168 201.140,162.578 194.606 C 156.640 189.494,142.525 178.391,142.525 178.832 M213.071 179.551 C 213.071 179.636,214.722 180.580,216.741 181.650 C 218.760 182.720,221.338 184.119,222.471 184.759 C 223.603 185.399,224.530 185.841,224.530 185.741 C 224.530 185.548,218.102 181.925,214.951 180.342 C 213.917 179.822,213.071 179.466,213.071 179.551 M224.888 186.019 C 224.888 186.118,225.533 186.527,226.321 186.929 C 227.108 187.331,227.753 187.579,227.753 187.481 C 227.753 187.383,227.108 186.973,226.321 186.571 C 225.533 186.169,224.888 185.921,224.888 186.019 M228.290 187.897 C 228.487 188.100,229.454 188.717,230.439 189.268 C 231.423 189.819,232.068 190.104,231.871 189.901 C 231.674 189.697,230.707 189.080,229.722 188.529 C 228.738 187.978,228.093 187.694,228.290 187.897 M232.408 190.313 C 232.408 190.411,232.892 190.742,233.483 191.047 C 234.073 191.353,234.557 191.522,234.557 191.424 C 234.557 191.325,234.073 190.995,233.483 190.689 C 232.892 190.384,232.408 190.214,232.408 190.313 M234.915 191.745 C 234.915 191.844,235.398 192.174,235.989 192.480 C 236.580 192.785,237.064 192.955,237.064 192.856 C 237.064 192.758,236.580 192.427,235.989 192.122 C 235.398 191.816,234.915 191.647,234.915 191.745 M237.959 193.551 C 238.759 194.216,241.028 195.442,240.466 194.906 C 240.269 194.718,239.463 194.202,238.675 193.760 C 237.887 193.317,237.565 193.223,237.959 193.551 M15.407 195.814 C 15.170 196.738,14.663 198.583,14.280 199.915 C 13.898 201.247,13.444 203.019,13.273 203.854 C 13.101 204.689,12.639 206.661,12.245 208.236 C 6.429 231.528,6.405 266.860,12.189 290.779 C 12.547 292.256,13.026 294.512,13.254 295.792 C 14.049 300.238,18.051 313.261,20.353 318.890 L 21.378 321.397 91.889 321.273 L 162.399 321.149 165.085 318.893 C 172.820 312.395,180.602 302.347,185.903 292.014 L 188.309 287.325 186.399 287.584 C 183.872 287.927,176.705 287.877,176.115 287.512 C 175.745 287.283,175.612 282.977,175.470 266.531 L 175.291 245.837 172.426 243.928 C 170.850 242.878,168.353 241.293,166.876 240.406 C 165.398 239.519,163.303 238.250,162.220 237.584 C 161.137 236.919,160.130 236.369,159.982 236.361 C 159.834 236.354,159.714 247.852,159.714 261.913 C 159.714 284.896,159.656 287.501,159.147 287.697 C 158.150 288.079,141.453 287.941,140.711 287.543 C 140.104 287.218,140.018 286.769,140.018 283.908 L 140.018 280.644 138.403 282.236 C 131.197 289.340,119.169 290.377,108.684 284.797 C 104.770 282.714,100.298 276.031,99.028 270.367 C 97.669 264.309,97.204 226.759,98.478 225.955 C 99.359 225.398,116.930 225.505,117.398 226.070 C 117.661 226.386,117.818 232.448,117.890 244.960 C 118.015 266.962,118.141 267.526,123.528 270.255 C 130.448 273.762,138.239 269.978,139.674 262.413 C 140.218 259.544,140.124 226.495,139.570 226.042 C 139.324 225.840,135.577 224.279,131.244 222.573 C 126.911 220.866,122.641 219.174,121.755 218.812 C 120.868 218.450,119.338 217.906,118.353 217.604 C 117.368 217.302,113.984 216.150,110.833 215.044 C 107.681 213.938,104.056 212.732,102.775 212.363 C 101.495 211.995,99.078 211.256,97.404 210.721 C 95.730 210.187,92.990 209.380,91.316 208.929 C 89.642 208.477,86.419 207.598,84.154 206.974 C 74.629 204.353,57.845 200.647,46.911 198.750 C 43.465 198.153,39.355 197.430,37.780 197.145 C 36.204 196.860,33.545 196.455,31.871 196.244 C 30.197 196.033,26.732 195.552,24.172 195.175 C 21.611 194.798,18.689 194.410,17.677 194.312 L 15.837 194.135 15.407 195.814 M241.182 195.426 C 241.379 195.613,242.184 196.129,242.972 196.572 C 243.760 197.014,244.082 197.108,243.688 196.781 C 242.888 196.116,240.620 194.889,241.182 195.426 M244.584 197.428 C 244.584 197.597,246.067 198.557,253.894 203.453 C 254.584 203.884,254.906 203.991,254.611 203.691 C 254.315 203.390,252.301 202.048,250.134 200.707 C 247.968 199.366,245.833 198.036,245.389 197.751 C 244.946 197.465,244.584 197.320,244.584 197.428 M255.327 204.224 C 255.327 204.305,256.455 205.121,257.833 206.038 C 259.212 206.955,260.340 207.629,260.340 207.536 C 260.340 207.444,259.414 206.745,258.281 205.984 C 255.773 204.299,255.327 204.033,255.327 204.224 M260.698 207.827 C 260.698 207.921,262.028 208.923,263.653 210.055 C 274.477 217.592,285.040 226.715,292.021 234.557 C 293.161 235.837,293.718 236.330,293.258 235.652 C 292.026 233.834,283.263 225.116,279.141 221.606 C 272.949 216.335,260.698 207.182,260.698 207.827 M73.361 211.549 C 73.544 211.893,73.707 215.139,73.721 218.760 C 73.736 222.382,73.821 225.418,73.911 225.507 C 74.000 225.597,76.462 225.654,79.382 225.635 C 82.302 225.616,84.904 225.739,85.164 225.908 C 85.631 226.211,85.841 241.942,85.384 242.399 C 85.285 242.498,82.737 242.539,79.723 242.490 C 75.383 242.420,74.156 242.505,73.827 242.902 C 73.186 243.675,73.429 267.344,74.091 268.647 C 74.875 270.187,76.778 270.725,81.437 270.725 C 86.397 270.725,85.944 269.847,85.944 279.484 C 85.944 288.953,86.821 288.057,77.795 287.821 C 66.492 287.525,60.832 285.398,57.258 280.103 C 54.162 275.515,53.743 272.676,53.728 256.157 C 53.716 243.777,53.671 242.831,53.089 242.693 C 52.744 242.612,51.174 242.507,49.599 242.460 C 45.988 242.352,46.206 242.883,46.206 234.199 C 46.206 225.321,45.968 225.817,50.300 225.659 L 53.715 225.535 53.715 218.467 C 53.715 214.580,53.823 211.292,53.954 211.161 C 54.579 210.536,73.018 210.905,73.361 211.549 M186.599 220.680 C 187.952 222.776,189.230 224.375,188.531 223.098 C 187.946 222.029,185.466 218.442,185.312 218.442 C 185.225 218.442,185.805 219.449,186.599 220.680 M189.245 224.865 C 189.544 225.444,189.952 226.017,190.150 226.140 C 190.349 226.263,190.173 225.790,189.759 225.089 C 188.852 223.551,188.483 223.391,189.245 224.865 M196.367 250.850 C 196.366 252.623,196.427 253.393,196.502 252.562 C 196.577 251.731,196.578 250.281,196.504 249.339 C 196.430 248.398,196.368 249.078,196.367 250.850 M195.972 256.580 C 195.976 257.368,196.049 257.648,196.135 257.203 C 196.221 256.757,196.218 256.113,196.128 255.770 C 196.038 255.428,195.968 255.792,195.972 256.580 M195.406 259.943 C 195.274 260.605,195.184 261.650,195.207 262.265 C 195.236 263.037,195.350 262.780,195.573 261.435 C 195.929 259.284,195.789 258.028,195.406 259.943 M282.274 272.046 C 282.619 272.136,283.183 272.136,283.527 272.046 C 283.872 271.956,283.590 271.883,282.901 271.883 C 282.211 271.883,281.929 271.956,282.274 272.046 M194.955 280.573 C 194.956 284.118,195.009 285.520,195.075 283.688 C 195.140 281.856,195.139 278.956,195.074 277.242 C 195.008 275.529,194.955 277.028,194.955 280.573 M275.291 288.167 C 275.734 288.252,276.459 288.252,276.902 288.167 C 277.346 288.081,276.983 288.012,276.097 288.012 C 275.210 288.012,274.848 288.081,275.291 288.167 M313.838 292.569 C 313.838 295.228,313.894 296.316,313.963 294.987 C 314.032 293.657,314.032 291.482,313.963 290.152 C 313.894 288.823,313.838 289.910,313.838 292.569 M313.430 298.836 C 313.434 299.624,313.507 299.904,313.593 299.459 C 313.678 299.013,313.675 298.369,313.585 298.026 C 313.496 297.684,313.426 298.048,313.430 298.836 M311.962 306.590 C 311.728 307.604,311.602 308.498,311.681 308.578 C 311.761 308.657,312.024 307.900,312.265 306.893 C 312.506 305.887,312.633 304.993,312.546 304.906 C 312.459 304.819,312.196 305.577,311.962 306.590 M309.997 312.683 C 309.673 313.508,309.467 314.241,309.538 314.313 C 309.610 314.385,309.937 313.772,310.266 312.951 C 310.594 312.131,310.800 311.397,310.724 311.321 C 310.648 311.245,310.321 311.858,309.997 312.683 M308.284 316.294 C 307.361 318.112,305.481 320.934,304.948 321.302 C 304.685 321.482,304.695 321.566,304.979 321.570 C 305.206 321.573,305.950 320.730,306.633 319.696 C 308.016 317.600,309.511 314.772,309.236 314.772 C 309.137 314.772,308.709 315.457,308.284 316.294 " stroke="none" fill="#c42c2c" fill-rule="evenodd"></path></g></svg>