<?xml version="1.0" encoding="UTF-8"?>
<svg version="1.1" xmlns="http://www.w3.org/2000/svg" width="464" height="507">
<path d="M0 0 C153.12 0 306.24 0 464 0 C464 167.31 464 334.62 464 507 C310.88 507 157.76 507 0 507 C0 339.69 0 172.38 0 0 Z " fill="#000000" transform="translate(0,0)"/>
<path d="M0 0 C18.48 0 36.96 0 56 0 C56 42.57 56 85.14 56 129 C118.37 129 180.74 129 245 129 C245 86.43 245 43.86 245 0 C265.46 0 285.92 0 307 0 C307 60.72 307 121.44 307 184 C205.36 184 103.72 184 -1 184 C-1.020625 153.825625 -1.04125 123.65125 -1.0625 92.5625 C-1.071604 83.01771729 -1.08070801 73.47293457 -1.09008789 63.63891602 C-1.09460449 52.02722168 -1.09460449 52.02722168 -1.09544373 46.59971619 C-1.09637934 42.7905876 -1.10014246 38.9814728 -1.10557556 35.17234802 C-1.1124012 30.32317709 -1.1144974 25.4740264 -1.11307228 20.62485111 C-1.11337056 18.83920646 -1.11537316 17.05356115 -1.11921513 15.26792061 C-1.12414193 12.86780165 -1.12300738 10.46776276 -1.12025452 8.06764221 C-1.12316718 7.35871291 -1.12607985 6.64978361 -1.12908077 5.9193716 C-1.11412483 1.11412483 -1.11412483 1.11412483 0 0 Z " fill="#17478E" transform="translate(85,37)"/>
<path d="M0 0 C100.32 0 200.64 0 304 0 C304.020625 29.349375 304.04125 58.69875 304.0625 88.9375 C304.071604 98.22124756 304.08070801 107.50499512 304.09008789 117.07006836 C304.09460449 128.36437988 304.09460449 128.36437988 304.09544373 133.64356995 C304.09637932 137.34853203 304.10014238 141.05347994 304.10557556 144.75843811 C304.11240137 149.47505005 304.11449737 154.19164118 304.11307228 158.9082576 C304.11337055 160.64505826 304.11537305 162.3818596 304.11921513 164.11865604 C304.12414219 166.45318996 304.12300728 168.78764157 304.12025452 171.12217712 C304.12163721 173.08974425 304.12163721 173.08974425 304.12304783 175.0970602 C304 178 304 178 303 179 C283.86 179 264.72 179 245 179 C245 138.41 245 97.82 245 56 C150.95 56.495 150.95 56.495 55 57 C54.67 97.26 54.34 137.52 54 179 C36.18 179 18.36 179 0 179 C0 119.93 0 60.86 0 0 Z " fill="#F87802" transform="translate(86,287)"/>
<path d="M0 0 C18.48 0 36.96 0 56 0 C56 42.57 56 85.14 56 129 C118.37 129 180.74 129 245 129 C245 86.43 245 43.86 245 0 C265.46 0 285.92 0 307 0 C307 60.72 307 121.44 307 184 C306.34 184 305.68 184 305 184 C305 123.61 305 63.22 305 1 C285.53 1 266.06 1 246 1 C246 43.9 246 86.8 246 131 C198.14238592 131.04030303 198.14238592 131.04030303 178.15429688 131.04882812 C164.32934195 131.05477177 150.5043931 131.06177525 136.67944336 131.07543945 C126.61275651 131.08538437 116.54607456 131.09185297 106.47938293 131.09408849 C101.14563289 131.09539593 95.81189688 131.09848384 90.47815132 131.10573006 C85.46402341 131.11248725 80.44991541 131.11461758 75.43578339 131.11310768 C73.58982421 131.11338415 71.74386442 131.11539104 69.89790916 131.11920547 C67.3890322 131.12413803 64.88023167 131.12299992 62.37135315 131.12025452 C61.63109487 131.12316736 60.89083658 131.1260802 60.12814623 131.12908131 C55.11412121 131.11412121 55.11412121 131.11412121 54 130 C53.90391337 128.35509451 53.87812213 126.70604309 53.87974548 125.05833435 C53.87837082 123.98836212 53.87699615 122.91838989 53.87557983 121.81599426 C53.88097275 120.04007149 53.88097275 120.04007149 53.88647461 118.22827148 C53.88632858 116.989422 53.88618256 115.75057251 53.8860321 114.47418213 C53.88661108 111.06730167 53.89164041 107.66048116 53.89860606 104.25361133 C53.90484007 100.69683174 53.90544344 97.14005142 53.90663147 93.58326721 C53.90974465 86.84363418 53.91795785 80.10401729 53.92798096 73.36439139 C53.93914252 65.69341602 53.94465265 58.02243989 53.94967639 50.35145843 C53.96014048 34.567628 53.97848579 18.78381982 54 3 C36.84 3 19.68 3 2 3 C2 62.4 2 121.8 2 183 C1.01 183.33 0.02 183.66 -1 184 C-1.02332627 160.15703607 -1.04097784 136.31407384 -1.05181217 112.47110081 C-1.05697571 101.40122154 -1.0640195 90.33134934 -1.07543945 79.26147461 C-1.08538454 69.61668946 -1.09185301 59.97190943 -1.09408849 50.32711929 C-1.0953959 45.21693439 -1.09848364 40.10676415 -1.10573006 34.99658394 C-1.1124875 30.19257441 -1.11461753 25.38858567 -1.11310768 20.58457184 C-1.11338413 18.81601537 -1.11539088 17.04745825 -1.11920547 15.27890587 C-1.12413843 12.87512527 -1.12299978 10.47142443 -1.12025452 8.06764221 C-1.12316736 7.35851152 -1.1260802 6.64938082 -1.12908131 5.91876131 C-1.11412121 1.11412121 -1.11412121 1.11412121 0 0 Z " fill="#0F2648" transform="translate(85,37)"/>
<path d="M0 0 C1.07077679 -0.00260775 2.14155358 -0.00521549 3.24477816 -0.00790226 C4.43570432 -0.00567154 5.62663049 -0.00344082 6.85364532 -0.0011425 C8.10744476 -0.00270249 9.36124419 -0.00426248 10.65303755 -0.00586975 C14.14913973 -0.01006741 17.64521482 -0.00797042 21.14131713 -0.00488353 C24.90550027 -0.00263141 28.66967858 -0.00610809 32.43386078 -0.00886345 C39.81419447 -0.01332217 47.19451802 -0.01234423 54.57485211 -0.00945081 C60.57024477 -0.00719717 66.56563457 -0.00688408 72.56102753 -0.00797462 C73.41263921 -0.00812786 74.2642509 -0.00828109 75.14166901 -0.00843897 C76.87142074 -0.00875868 78.60117248 -0.00908289 80.33092421 -0.00941156 C96.57059858 -0.01226665 112.81026732 -0.00897887 129.04994076 -0.00361119 C143.0000147 0.00085687 156.95008032 0.00008095 170.90015411 -0.00452995 C187.07966324 -0.0098752 203.25916742 -0.01199196 219.43867731 -0.00891769 C221.16225084 -0.00859912 222.88582436 -0.00828475 224.60939789 -0.00797462 C225.45754404 -0.00782035 226.30569019 -0.00766607 227.17953774 -0.00750712 C233.17132623 -0.00664182 239.16311159 -0.00810513 245.1548996 -0.01045418 C252.45172054 -0.01325183 259.74853073 -0.01251466 267.04535043 -0.00717343 C270.77197765 -0.00453594 274.4985869 -0.00353215 278.225214 -0.00682259 C282.25575185 -0.01032767 286.28624386 -0.00615734 290.31678009 -0.0011425 C291.50770626 -0.00337322 292.69863242 -0.00560395 293.92564726 -0.00790226 C294.99642405 -0.00529452 296.06720084 -0.00268677 297.17042542 0 C298.56793242 0.00024353 298.56793242 0.00024353 299.99367189 0.00049198 C302.08521271 0.12584114 302.08521271 0.12584114 303.08521271 1.12584114 C303.18451463 3.40995394 303.21153725 5.69720637 303.21219635 7.98347664 C303.21375634 8.70908669 303.21531633 9.43469673 303.21692359 10.18229496 C303.22093625 12.63208447 303.21774291 15.08181282 303.21460724 17.53160286 C303.21596119 19.28055546 303.21774108 21.02950778 303.2199173 22.77845955 C303.22449308 27.54291969 303.2227013 32.30735829 303.21953821 37.07181883 C303.21701456 42.04857728 303.21935224 47.02533384 303.22092438 52.00209236 C303.2227464 60.36349508 303.22033928 68.72488898 303.2155838 77.08629036 C303.21014467 86.7616369 303.21190117 96.43696236 303.21741021 106.11230838 C303.22194466 114.40700075 303.22259014 122.70168676 303.21997154 130.99637997 C303.21841014 135.95570415 303.21821119 140.91501842 303.22150803 145.87434196 C303.22439142 150.53802288 303.22240237 155.20167657 303.21661377 159.86535454 C303.21528854 161.57985578 303.21567628 163.2943593 303.21787643 165.00885963 C303.2205973 167.34401708 303.2171952 169.67908656 303.21219635 172.01423836 C303.21181932 173.32280737 303.2114423 174.63137638 303.21105385 175.979599 C303.08521271 179.12584114 303.08521271 179.12584114 302.08521271 182.12584114 C282.28521271 182.12584114 262.48521271 182.12584114 242.08521271 182.12584114 C242.08521271 181.46584114 242.08521271 180.80584114 242.08521271 180.12584114 C270.79521271 179.63084114 270.79521271 179.63084114 300.08521271 179.12584114 C300.41521271 120.38584114 300.74521271 61.64584114 301.08521271 1.12584114 C200.76521271 1.12584114 100.44521271 1.12584114 -2.91478729 1.12584114 C-2.91478729 60.19584114 -2.91478729 119.26584114 -2.91478729 180.12584114 C14.90521271 180.12584114 32.72521271 180.12584114 51.08521271 180.12584114 C51.08521271 139.86584114 51.08521271 99.60584114 51.08521271 58.12584114 C51.41521271 58.12584114 51.74521271 58.12584114 52.08521271 58.12584114 C52.08521271 99.37584114 52.08521271 140.62584114 52.08521271 183.12584114 C33.60521271 183.12584114 15.12521271 183.12584114 -3.91478729 183.12584114 C-6.33444663 180.7061818 -6.15352859 179.4623973 -6.17761201 176.16117996 C-6.17246844 175.46731707 -6.16732488 174.77345418 -6.16202545 174.05856514 C-6.16443987 173.32252243 -6.16685428 172.58647972 -6.16934186 171.82813269 C-6.17500082 169.34907361 -6.16629935 166.87026971 -6.15770721 164.391222 C-6.15877954 162.61917234 -6.16071749 160.84712302 -6.16345978 159.07507515 C-6.16831877 154.25293174 -6.1606396 149.43088046 -6.15050673 144.6087482 C-6.14174461 139.57233768 -6.14348331 134.53593021 -6.14386749 129.49951363 C-6.14293009 121.04152566 -6.13423548 112.58357352 -6.12059784 104.125597 C-6.10486645 94.33260412 -6.09959986 84.53965047 -6.10033339 74.74664587 C-6.10094275 65.3429592 -6.0958461 55.93928538 -6.08754158 46.53560257 C-6.08400172 42.52563629 -6.08217733 38.51567455 -6.08164787 34.50570679 C-6.08064677 29.78866376 -6.07456927 25.07165396 -6.06448174 20.35462189 C-6.06154939 18.61831808 -6.06033284 16.88201045 -6.06090927 15.14570427 C-6.06139644 12.78581148 -6.05577925 10.42601318 -6.04850006 8.0661335 C-6.05004866 7.37003989 -6.05159727 6.67394627 -6.05319279 5.95675892 C-6.02390574 0.25484991 -5.60131001 0.00097608 0 0 Z " fill="#552A01" transform="translate(88.91478729248047,285.87415885925293)"/>
<path d="M0 0 C0.99 0.33 1.98 0.66 3 1 C3.02333865 24.15650342 3.04098394 47.31300492 3.05181217 70.46951771 C3.05697307 81.22097478 3.06401186 91.97242456 3.07543945 102.72387695 C3.08539257 112.09254085 3.09185493 121.46119946 3.09408849 130.8298685 C3.09539453 135.79256417 3.09847366 140.75524472 3.10573006 145.71793556 C3.11250014 150.3857027 3.11461493 155.05344844 3.11310768 159.72122002 C3.11338356 161.43733461 3.11538284 163.15344989 3.11920547 164.86956024 C3.12415812 167.20695611 3.12299243 169.54427046 3.12025452 171.88166809 C3.12117631 173.19153592 3.1220981 174.50140375 3.12304783 175.85096455 C3 179 3 179 2 182 C-17.8 182 -37.6 182 -58 182 C-58 181.34 -58 180.68 -58 180 C-29.29 179.505 -29.29 179.505 0 179 C0 119.93 0 60.86 0 0 Z " fill="#3E2A17" transform="translate(389,286)"/>
<path d="M0 0 C0 0.99 0 1.98 0 3 C-19.8 3 -39.6 3 -60 3 C-60 2.34 -60 1.68 -60 1 C-52.472284 0.86941364 -44.94456482 0.73901226 -37.41684151 0.60884857 C-33.92161019 0.54840583 -30.42638002 0.48789881 -26.93115234 0.42724609 C-22.91504234 0.35755729 -18.89892758 0.28814591 -14.8828125 0.21875 C-13.62445587 0.19687622 -12.36609924 0.17500244 -11.0696106 0.15246582 C-9.90855804 0.13244507 -8.74750549 0.11242432 -7.55126953 0.09179688 C-6.52534698 0.07403198 -5.49942444 0.05626709 -4.44241333 0.03796387 C-2.96173367 0.01494879 -1.48085851 0 0 0 Z " fill="#502B09" transform="translate(391,465)"/>
</svg>
