<svg style="max-height: 500px" viewBox="41.51175121472566 2.224 194.94905245486896 178.476" version="1.1" xmlns="http://www.w3.org/2000/svg" width="194.94905245486896" height="178.476">
<path d="M0 0 C92.07 0 184.14 0 279 0 C279 91.74 279 183.48 279 278 C186.93 278 94.86 278 0 278 C0 186.26 0 94.52 0 0 Z" fill="#161616" transform="translate(0,0)"/>
<path d="M0 0 C17.64628733 14.23087688 32.65124082 33.4630251 35.24536133 56.77978516 C37.34029621 82.57385204 32.66547797 107.13013526 15.6796875 127.31640625 C5.94679977 138.36943731 -4.58428082 148.53476303 -19.578125 150.953125 C-17.37362266 145.3416645 -12.22704234 142.68961564 -7.453125 139.390625 C5.20268763 130.17093354 16.43358271 118.06934397 21.66796875 103.07421875 C22.421875 100.953125 22.421875 100.953125 23.41796875 99 C30.54229427 84.47413786 29.6527631 62.50367107 24.8125 47.4375 C20.41990071 36.43132425 15.32376707 26.88021264 7.421875 17.953125 C6.66261719 16.98632812 5.90335938 16.01953125 5.12109375 15.0234375 C2.28033905 11.61280659 -0.9933534 9.04519062 -4.578125 6.453125 C-5.23675537 5.97609131 -5.89538574 5.49905762 -6.57397461 5.00756836 C-24.0572054 -7.327974 -44.70996151 -12.01257907 -65.828125 -9.421875 C-83.05214067 -6.44158589 -99.9296002 1.81569102 -111.578125 14.953125 C-112.42375 15.736875 -113.269375 16.520625 -114.140625 17.328125 C-130.50449826 34.95075775 -135.58477048 56.97689349 -134.76171875 80.3515625 C-134.32831622 86.49296853 -132.60171175 92.15349892 -130.578125 97.953125 C-130.01738281 99.66435547 -130.01738281 99.66435547 -129.4453125 101.41015625 C-126.83841188 108.82514842 -123.4071479 114.78159365 -118.578125 120.953125 C-117.93617187 121.8090625 -117.29421875 122.665 -116.6328125 123.546875 C-110.97568796 130.91222931 -104.94573763 136.42062991 -97.203125 141.515625 C-93.85601715 143.78467664 -92.72469939 144.6430638 -90.953125 148.390625 C-90.829375 149.23625 -90.705625 150.081875 -90.578125 150.953125 C-99.49109246 149.18274105 -108.12114695 142.05290852 -114.578125 135.953125 C-114.578125 135.293125 -114.578125 134.633125 -114.578125 133.953125 C-115.44824219 133.59734375 -115.44824219 133.59734375 -116.3359375 133.234375 C-127.4307528 126.89448054 -135.25629795 108.85633859 -138.578125 96.953125 C-138.578125 95.633125 -138.578125 94.313125 -138.578125 92.953125 C-139.238125 92.953125 -139.898125 92.953125 -140.578125 92.953125 C-142.22245881 85.97670705 -142.93497249 79.3652454 -142.890625 72.203125 C-142.88498535 71.24011475 -142.8793457 70.27710449 -142.87353516 69.28491211 C-142.47050302 45.47209733 -132.21674946 24.6148908 -115.578125 7.953125 C-114.78535156 7.14875 -113.99257812 6.344375 -113.17578125 5.515625 C-103.10442508 -4.13678956 -90.82794633 -10.83927296 -77.578125 -15.046875 C-76.63582031 -15.36527344 -75.69351563 -15.68367187 -74.72265625 -16.01171875 C-48.71460898 -23.46712992 -21.24578743 -15.82739869 0 0 Z" fill="#4F5E69" transform="translate(193.578125,21.046875)"/>
<path d="M0 0 C4.08039287 2.69660746 7.16448414 6.4441547 8.671875 11.125 C9.98191577 18.54096993 8.4579535 23.69583504 4.5703125 30.03125 C1.33979896 33.5941209 -1.99307777 34.91126854 -6.6953125 35.6640625 C-17.33748782 35.92478394 -17.33748782 35.92478394 -22.015625 32.0625 C-26.1358803 27.66873739 -28.39960861 23.18365414 -28.703125 17.125 C-28.43615926 10.85130508 -25.66194808 5.58628846 -21.328125 1.125 C-15.09386592 -2.01423684 -6.54939974 -2.46151936 0 0 Z" fill="#ECEFEF" transform="translate(203.328125,197.875)"/>
<path d="M0 0 C10.86417408 -1.04018688 18.05531399 2.036876 27 8 C30.13436869 7.64268197 32.19645393 6.34048559 34.75 4.5625 C41.57730926 0.19605082 48.02842414 -0.33214899 56 0 C56.69044934 8.84158736 55.17116256 17.22884425 49.6875 24.4375 C45.49565456 28.43437589 41.99339785 31 36 31 C35.10356303 27.91149451 34.61845417 25.21007229 35 22 C38.08178809 17.84761555 41.86598163 14.9271365 47 14 C47.33 12.02 47.66 10.04 48 8 C41.59730419 9.55621079 37.44956898 11.87017346 32.7265625 16.4765625 C31 18 31 18 28 19 C27.2575 18.236875 26.515 17.47375 25.75 16.6875 C21.69685006 12.7264671 18.79011301 10.69752825 13.25 9.3125 C12.26515625 9.06113281 11.2803125 8.80976562 10.265625 8.55078125 C9.51796875 8.36902344 8.7703125 8.18726562 8 8 C8.33 9.98 8.66 11.96 9 14 C9.99 14.020625 10.98 14.04125 12 14.0625 C18.29110206 14.94299907 22.41887012 20.16921803 26.375 24.75 C30 29.76923077 30 29.76923077 30 33 C20.62977173 32.96437176 14.19005854 30.58783656 7.1484375 24.36328125 C1.73274395 18.64078732 -0.15455196 12.21323683 -0.1875 4.4375 C-0.14020267 2.9577692 -0.08331896 1.47814012 0 0 Z" fill="#9ADFAC" transform="translate(112,110)"/>
<path d="M0 0 C21.21428571 0 21.21428571 0 26.4375 3.75 C28.52411109 6.75471997 28.51368305 8.40421866 28 12 C26.5 14.875 26.5 14.875 25 17 C25.66 17.474375 26.32 17.94875 27 18.4375 C29.49669601 21.63639176 29.58059276 23.6461572 29.82421875 27.5859375 C28.42491122 31.68438324 25.78490645 33.98428197 22 36 C18.1429453 36.6976474 14.46526204 36.57151487 10.5625 36.375 C7.076875 36.25125 3.59125 36.1275 0 36 C0 24.12 0 12.24 0 0 Z" fill="#EBEEEE" transform="translate(140,197)"/>
<path d="M0 0 C2.64 0 5.28 0 8 0 C8 11.88 8 23.76 8 36 C4.37 36 0.74 36 -3 36 C-3.53109375 34.92621094 -4.0621875 33.85242188 -4.609375 32.74609375 C-5.32280745 31.30984158 -6.03635529 29.87364672 -6.75 28.4375 C-7.09804687 27.73302734 -7.44609375 27.02855469 -7.8046875 26.30273438 C-8.15273437 25.60341797 -8.50078125 24.90410156 -8.859375 24.18359375 C-9.17358398 23.54993896 -9.48779297 22.91628418 -9.81152344 22.26342773 C-11.45684073 19.12995679 -13.24408101 16.07285823 -15 13 C-15.33 20.59 -15.66 28.18 -16 36 C-18.64 36 -21.28 36 -24 36 C-24 24.45 -24 12.9 -24 1 C-20.37 1 -16.74 1 -13 1 C-12.484375 2.051875 -11.96875 3.10375 -11.4375 4.1875 C-8.43613564 10.20106396 -5.20533032 16.09354863 -2 22 C-1.97494385 21.36908447 -1.9498877 20.73816895 -1.92407227 20.08813477 C-1.80845863 17.24603175 -1.68557684 14.40428917 -1.5625 11.5625 C-1.52318359 10.56927734 -1.48386719 9.57605469 -1.44335938 8.55273438 C-1.40146484 7.60849609 -1.35957031 6.66425781 -1.31640625 5.69140625 C-1.27974854 4.81685791 -1.24309082 3.94230957 -1.20532227 3.04125977 C-1 1 -1 1 0 0 Z" fill="#EEEFF0" transform="translate(243,197)"/>
<path d="M0 0 C3.196875 -0.061875 6.39375 -0.12375 9.6875 -0.1875 C11.18543091 -0.22846802 11.18543091 -0.22846802 12.71362305 -0.27026367 C17.63856627 -0.31641175 21.01784091 -0.24384952 25 3 C27 5 27 5 27.375 8.3125 C26.94623108 12.52872769 26.00545229 14.08294336 23 17 C22.34 17 21.68 17 21 17 C21 17.66 21 18.32 21 19 C21.99 19.33 22.98 19.66 24 20 C25.35608918 22.13431595 26.53963577 24.19688819 27.6875 26.4375 C28.00783203 27.03626953 28.32816406 27.63503906 28.65820312 28.25195312 C31 32.71085421 31 32.71085421 31 35 C28.03 35 25.06 35 22 35 C21.59007813 34.22914063 21.18015625 33.45828125 20.7578125 32.6640625 C20.21898438 31.66117188 19.68015625 30.65828125 19.125 29.625 C18.32449219 28.12839844 18.32449219 28.12839844 17.5078125 26.6015625 C16.1179862 23.94651605 16.1179862 23.94651605 14 22 C12.02 21.67 10.04 21.34 8 21 C8 25.62 8 30.24 8 35 C5.36 35 2.72 35 0 35 C0 23.45 0 11.9 0 0 Z" fill="#EFF2F2" transform="translate(103,198)"/>
<path d="M0 0 C1.51400391 0.01740234 1.51400391 0.01740234 3.05859375 0.03515625 C4.07050781 0.04417969 5.08242187 0.05320313 6.125 0.0625 C7.29869141 0.07990234 7.29869141 0.07990234 8.49609375 0.09765625 C12.08925978 6.83896315 14.69615547 13.77967073 17.24609375 20.97265625 C17.65730469 22.1121875 18.06851563 23.25171875 18.4921875 24.42578125 C21.49609375 32.82873495 21.49609375 32.82873495 21.49609375 35.09765625 C18.52609375 35.09765625 15.55609375 35.09765625 12.49609375 35.09765625 C11.83609375 33.11765625 11.17609375 31.13765625 10.49609375 29.09765625 C5.54609375 28.76765625 0.59609375 28.43765625 -4.50390625 28.09765625 C-4.83390625 30.07765625 -5.16390625 32.05765625 -5.50390625 34.09765625 C-6.50390625 35.09765625 -6.50390625 35.09765625 -8.3515625 35.1953125 C-10.40234375 35.16276042 -12.453125 35.13020833 -14.50390625 35.09765625 C-14.16352634 31.09819226 -13.54460902 27.91366496 -11.81640625 24.28515625 C-9.18838142 18.74891276 -7.39555455 12.95327303 -5.52270508 7.12963867 C-3.25449273 0.12693029 -3.25449273 0.12693029 0 0 Z" fill="#E8EBEB" transform="translate(75.50390625,197.90234375)"/>
<path d="M0 0 C4.09652139 1.6581158 4.97893662 5.21957511 6.625 9.0625 C13.50537142 24.39376241 23.25991544 34.36100475 38.35546875 41.484375 C41.24758392 42.88033023 43.98949997 44.22697484 46.625 46.0625 C47 48.6875 47 48.6875 46.625 51.0625 C45.625 52.0625 45.625 52.0625 42.45703125 52.3125 C29.1268921 51.4428477 16.45130186 38.71164169 8.0234375 29.20703125 C2.28733213 21.68656737 -4.92799584 10.73992719 -4.375 1.0625 C-2.375 0.0625 -2.375 0.0625 0 0 Z" fill="#90DDAE" transform="translate(77.375,107.9375)"/>
<path d="M0 0 C14.97262552 1.19185079 27.65077007 11.85477968 37.25 22.625 C42.65988193 29.35710547 48.35714938 38.0577526 49.3046875 46.81640625 C49 49 49 49 47 51 C44.58203125 51.08984375 44.58203125 51.08984375 42 50 C40.65257134 47.48379052 39.65719641 45.21854693 38.6875 42.5625 C35.78553801 35.34040816 32.42779893 29.67358606 27 24 C26.35804688 23.30648437 25.71609375 22.61296875 25.0546875 21.8984375 C19.33186704 16.26265613 12.66236711 13.03979228 5.4765625 9.6640625 C2 8 2 8 -1 6 C-1.25 3.4375 -1.25 3.4375 -1 1 C-0.67 0.67 -0.34 0.34 0 0 Z" fill="#A1E2B6" transform="translate(158,26)"/>
<path d="M0 0 C1.22332031 -0.01417969 2.44664063 -0.02835938 3.70703125 -0.04296875 C7.01421123 0.17602521 9.2266898 0.76067147 12.1875 2.1875 C12.1875 4.1675 12.1875 6.1475 12.1875 8.1875 C11.65125 8.03023437 11.115 7.87296875 10.5625 7.7109375 C5.8018596 6.66171741 1.01901227 6.62742246 -3.8125 7.1875 C-6.83855268 8.80299168 -6.83855268 8.80299168 -7.8125 12.1875 C-8.55500065 17.49799378 -8.31595576 21.83732318 -6.4375 26.875 C-2.97447325 29.92576166 -0.7793317 29.73670873 3.703125 29.46484375 C6.55865557 29.14606597 9.37474023 28.77965995 12.1875 28.1875 C12.1875 30.1675 12.1875 32.1475 12.1875 34.1875 C6.07069312 37.07824049 -0.18196941 36.81860808 -6.8125 36.1875 C-11.34788865 34.07619839 -13.9778623 31.28197668 -16.8125 27.1875 C-18.77196946 21.30909161 -18.60580377 14.61148374 -16.6875 8.75 C-12.08179029 2.45553007 -7.76797779 0.04067004 0 0 Z" fill="#EAEDEE" transform="translate(44.8125,196.8125)"/>
<path d="M0 0 C3.1875 -0.3125 3.1875 -0.3125 6 0 C5.82017311 10.96944029 -0.37905737 18.96383797 -7.6484375 26.80859375 C-15.2960825 33.93538585 -27.18089589 43.20236151 -37.71875 44.27734375 C-40 44 -40 44 -42 42 C-42.1875 39.625 -42.1875 39.625 -41 37 C-38.98237636 35.81988051 -36.90715591 35.01384446 -34.734375 34.15234375 C-18.60815517 27.35629397 -9.51251567 17.12956044 -1.4375 2.08984375 C-0.963125 1.40019531 -0.48875 0.71054688 0 0 Z" fill="#8BD4A1" transform="translate(198,116)"/>
<path d="M0 0 C1 1 1 1 1.0625 3.5625 C1.041875 4.366875 1.02125 5.17125 1 6 C-0.08539063 6.53109375 -1.17078125 7.0621875 -2.2890625 7.609375 C-3.73448239 8.3226991 -5.17978889 9.03625301 -6.625 9.75 C-7.33785156 10.09804688 -8.05070312 10.44609375 -8.78515625 10.8046875 C-13.08090489 12.93285655 -17.07053544 15.23125624 -21 18 C-21.65484375 18.46019531 -22.3096875 18.92039062 -22.984375 19.39453125 C-28.44528216 23.78017129 -31.89694129 29.0377918 -35.41113281 35.02075195 C-36.60546875 36.96484375 -36.60546875 36.96484375 -39 40 C-41.73828125 40.50390625 -41.73828125 40.50390625 -44 40 C-44.33 39.67 -44.66 39.34 -45 39 C-45 29.85173826 -37.92853354 22.44373355 -32 16 C-11.7529869 -1.82824241 -11.7529869 -1.82824241 0 0 Z" fill="#ADE4B6" transform="translate(123,26)"/>
<path d="M0 0 C0.7528125 -0.01289063 1.505625 -0.02578125 2.28125 -0.0390625 C5.64509077 0.96772083 6.69971276 2.66882364 8.5 5.625 C8.99609375 8.78125 8.99609375 8.78125 8.9375 12.125 C8.93621094 13.2284375 8.93492187 14.331875 8.93359375 15.46875 C8.45951385 18.91970998 7.56148346 20.84275338 5.5 23.625 C2.2525812 25.2487094 -1.00079117 25.30271238 -4.5 24.625 C-7.85525514 21.68915176 -8.34603765 19.90481199 -8.875 15.5078125 C-9.19245471 6.75796719 -9.19245471 6.75796719 -6.75 2.76171875 C-4.25870339 0.395852 -3.37160344 -0.05773294 0 0 Z" fill="#191919" transform="translate(193.5,202.375)"/>
<path d="M0 0 C1.51400391 0.01740234 1.51400391 0.01740234 3.05859375 0.03515625 C4.07050781 0.04417969 5.08242187 0.05320313 6.125 0.0625 C7.29869141 0.07990234 7.29869141 0.07990234 8.49609375 0.09765625 C9.12109375 1.91015625 9.12109375 1.91015625 9.49609375 4.09765625 C7.49609375 7.09765625 7.49609375 7.09765625 4.87109375 7.78515625 C3.69546875 7.93984375 3.69546875 7.93984375 2.49609375 8.09765625 C2.37492187 8.67773438 2.25375 9.2578125 2.12890625 9.85546875 C1.15873901 14.37794067 0.06211592 18.73516591 -1.50390625 23.09765625 C-0.84390625 23.42765625 -0.18390625 23.75765625 0.49609375 24.09765625 C0.49609375 25.08765625 0.49609375 26.07765625 0.49609375 27.09765625 C-0.40109375 27.12859375 -0.40109375 27.12859375 -1.31640625 27.16015625 C-3.93705227 28.00222241 -3.93705227 28.00222241 -5.25390625 31.66015625 C-5.66640625 32.79453125 -6.07890625 33.92890625 -6.50390625 35.09765625 C-9.14390625 35.09765625 -11.78390625 35.09765625 -14.50390625 35.09765625 C-14.16352634 31.09819226 -13.54460902 27.91366496 -11.81640625 24.28515625 C-9.18838142 18.74891276 -7.39555455 12.95327303 -5.52270508 7.12963867 C-3.25449273 0.12693029 -3.25449273 0.12693029 0 0 Z" fill="#ECEFF0" transform="translate(75.50390625,197.90234375)"/>
<path d="M0 0 C2.36497439 1.86708505 3.66030715 3.32061431 5 6 C5.37677003 10.99220285 5.07396361 13.98020143 2 18 C-1.48928518 19.74464259 -5.20256091 19.70148076 -9 19 C-12.13466105 15.86533895 -12.88701517 13.80501692 -13.5 9.4375 C-12.91912703 5.44399832 -11.82477169 3.82477169 -9 1 C-5.90826248 -0.54586876 -3.40570448 -0.29359521 0 0 Z" fill="#E8EAEB" transform="translate(107,252)"/>
<path d="M0 0 C5.06390977 0.63298872 5.06390977 0.63298872 7.5 2.4375 C9.38886253 4.95598338 9.50715839 6.26569868 9.375 9.4375 C8.34308189 12.97550495 7.54332421 14.35522554 4.5 16.4375 C0.39713759 17.03427999 -1.76819573 16.82675759 -5.4375 14.875 C-7.5 12.4375 -7.5 12.4375 -8.0625 9 C-7.19217292 3.4879285 -5.75321136 0.71915142 0 0 Z" fill="#475863" transform="translate(205.5,83.5625)"/>
<path d="M0 0 C3.22456813 2.72848072 3.91290117 4.37942087 4.5 8.5625 C4 12 4 12 2.5 14.4375 C-1.03084845 16.64428028 -3.94521721 16.78773899 -8 16 C-10.5625 14.5625 -10.5625 14.5625 -12 12 C-12.29304308 7.83728547 -11.99650203 4.26479104 -9.375 0.9375 C-5.98231865 -0.40171632 -3.61200009 -0.51600001 0 0 Z" fill="#2F3D47" transform="translate(144,151)"/>
<path d="M0 0 C2.5 1.5 2.5 1.5 4 4 C4.60460397 6.80996894 4.65502602 9.19602896 4 12 C1.29649843 15.2769716 -0.37521292 15.90134941 -4.5625 16.5625 C-8 16 -8 16 -10.4375 13.9375 C-12.38925759 10.26819573 -12.59677999 8.10286241 -12 4 C-9.10088554 -0.711061 -5.09331372 -1.00196335 0 0 Z" fill="#78858E" transform="translate(144,19)"/>
<path d="M0 0 C2.99455648 2.04890706 3.83302657 3.50951555 5 6.9375 C5 10 5 10 3.1875 12.8125 C0.66016155 15.33983845 -0.30345846 15.89164909 -3.8125 16.4375 C-7 16 -7 16 -9.9375 13.4375 C-11.94229022 10.70839847 -12.00125663 9.92585881 -12.0625 6.3125 C-11 3 -11 3 -9.375 1.0625 C-6.02317947 -0.43699866 -3.63019782 -0.45377473 0 0 Z" fill="#485964" transform="translate(78,84)"/>
<path d="M0 0 C0.9075 0.53625 1.815 1.0725 2.75 1.625 C7.11260187 4.12681863 11.61749812 6.32441142 16.1328125 8.53515625 C18.85321644 9.9250084 21.48041527 11.27006773 24 13 C24.375 15.625 24.375 15.625 24 18 C23 19 23 19 19.85546875 19.265625 C15.50724549 18.96605136 13.0894248 17.87759314 9.3125 15.75 C8.21550781 15.14671875 7.11851563 14.5434375 5.98828125 13.921875 C3.24980965 12.16066189 1.18148045 10.39909772 -1 8 C-0.67 7.34 -0.34 6.68 0 6 C0.66 6 1.32 6 2 6 C1.34 4.02 0.68 2.04 0 0 Z" fill="#83CFA1" transform="translate(100,141)"/>
<path d="M0 0 C0.99 0 1.98 0 3 0 C3 6.27 3 12.54 3 19 C-2 18 -2 18 -3.80078125 15.71484375 C-4.29964844 14.79832031 -4.79851562 13.88179688 -5.3125 12.9375 C-5.82425781 12.01839844 -6.33601563 11.09929687 -6.86328125 10.15234375 C-7.42595703 9.08693359 -7.42595703 9.08693359 -8 8 C-8.33 11.63 -8.66 15.26 -9 19 C-10.32 19 -11.64 19 -13 19 C-13 13.06 -13 7.12 -13 1 C-11.35 1 -9.7 1 -8 1 C-6.19921875 3.1875 -6.19921875 3.1875 -4.6875 6 C-4.17574219 6.928125 -3.66398437 7.85625 -3.13671875 8.8125 C-2.76160156 9.534375 -2.38648437 10.25625 -2 11 C-1.93941406 10.28972656 -1.87882812 9.57945312 -1.81640625 8.84765625 C-1.73261719 7.92855469 -1.64882812 7.00945312 -1.5625 6.0625 C-1.48128906 5.14597656 -1.40007812 4.22945313 -1.31640625 3.28515625 C-1 1 -1 1 0 0 Z" fill="#DFE0E0" transform="translate(129,252)"/>
<path d="M0 0 C5 1 5 1 6.80078125 3.28515625 C7.29964844 4.20167969 7.79851562 5.11820312 8.3125 6.0625 C8.82425781 6.98160156 9.33601562 7.90070313 9.86328125 8.84765625 C10.23839844 9.55792969 10.61351562 10.26820313 11 11 C11.33 7.37 11.66 3.74 12 0 C13.32 0 14.64 0 16 0 C16 6.27 16 12.54 16 19 C14.35 19 12.7 19 11 19 C8.98046875 16.375 8.98046875 16.375 7.1875 13 C6.58292969 11.88625 5.97835937 10.7725 5.35546875 9.625 C4.68451172 8.325625 4.68451172 8.325625 4 7 C3.67 10.96 3.34 14.92 3 19 C2.01 19 1.02 19 0 19 C0 12.73 0 6.46 0 0 Z" fill="#D5D6D6" transform="translate(137,252)"/>
<path d="M0 0 C0.02698189 1.62490954 0.04638757 3.24994633 0.0625 4.875 C0.07410156 5.77992187 0.08570313 6.68484375 0.09765625 7.6171875 C0 10 0 10 -1 12 C-1.66 12 -2.32 12 -3 12 C-3 12.66 -3 13.32 -3 14 C-3.66 14 -4.32 14 -5 14 C-5.33 14.99 -5.66 15.98 -6 17 C-6 16.34 -6 15.68 -6 15 C-6.99 15.66 -7.98 16.32 -9 17 C-9.99 16.67 -10.98 16.34 -12 16 C-11.34 15.67 -10.68 15.34 -10 15 C-9.26924352 12.6859378 -8.59861742 10.35171131 -8 8 C-12.455 8.495 -12.455 8.495 -17 9 C-17.66 7.02 -18.32 5.04 -19 3 C-12.43345544 0.6969113 -6.96327638 -0.33693273 0 0 Z" fill="#A1E5B2" transform="translate(168,110)"/>
<path d="M0 0 C0.56332031 0.71929687 1.12664062 1.43859375 1.70703125 2.1796875 C4.67620937 5.831726 7.87252905 9.24733897 11.07421875 12.6953125 C13 15 13 15 14 18 C14.66 18.66 15.32 19.32 16 20 C15.67 20.66 15.34 21.32 15 22 C14.34 22 13.68 22 13 22 C13 22.66 13 23.32 13 24 C4.79400027 21.76200007 -0.32394467 13.594437 -5 7 C-4.34 6.67 -3.68 6.34 -3 6 C-3 6.66 -3 7.32 -3 8 C0.24849977 6.27773504 0.24849977 6.27773504 1 3 C0.01 3 -0.98 3 -2 3 C-1 1 -1 1 0 0 Z" fill="#86D7A6" transform="translate(87,125)"/>
<path d="M0 0 C0.103125 0.556875 0.20625 1.11375 0.3125 1.6875 C1.13079491 4.4399465 2.49450585 6.56618506 4 9 C3.51789063 9.68707031 3.03578125 10.37414063 2.5390625 11.08203125 C1.90742187 11.98308594 1.27578125 12.88414063 0.625 13.8125 C-0.00148438 14.70582031 -0.62796875 15.59914063 -1.2734375 16.51953125 C-2.53550239 18.33267878 -3.77458808 20.16188211 -5 22 C-7.5625 22.25 -7.5625 22.25 -10 22 C-10.33 21.67 -10.66 21.34 -11 21 C-11 13.8739694 -7.20749413 9.48444103 -3 4 C-1.99963791 2.66693831 -0.99950938 1.33370116 0 0 Z" fill="#9DDFAA" transform="translate(89,44)"/>
<path d="M0 0 C3.96 0 7.92 0 12 0 C12 0.99 12 1.98 12 3 C9.03 3 6.06 3 3 3 C3 4.65 3 6.3 3 8 C5.64 8 8.28 8 11 8 C11 8.99 11 9.98 11 11 C8.69 11 6.38 11 4 11 C4 12.65 4 14.3 4 16 C6.97 16 9.94 16 13 16 C13 16.99 13 17.98 13 19 C8.71 19 4.42 19 0 19 C0 12.73 0 6.46 0 0 Z" fill="#C7C8C8" transform="translate(158,252)"/>
<path d="M0 0 C0.66 0 1.32 0 2 0 C3.01180498 2.05673453 4.00901477 4.12065348 5 6.1875 C5.556875 7.33605469 6.11375 8.48460938 6.6875 9.66796875 C7.92537782 12.81055739 8.47103841 14.68506719 8 18 C6 20 6 20 3.55078125 20.03515625 C1 19 1 19 -0.58203125 16.05859375 C-0.98808594 14.86363281 -1.39414063 13.66867188 -1.8125 12.4375 C-2.23144531 11.23996094 -2.65039062 10.04242188 -3.08203125 8.80859375 C-3.38496094 7.88175781 -3.68789062 6.95492187 -4 6 C-3.34 6 -2.68 6 -2 6 C-1.855625 5.195625 -1.71125 4.39125 -1.5625 3.5625 C-1 1 -1 1 0 0 Z" fill="#93E0AC" transform="translate(199,57)"/>
<path d="M0 0 C2.375 1.5 2.375 1.5 4 3 C3.67 3.99 3.34 4.98 3 6 C2.1646875 5.505 2.1646875 5.505 1.3125 5 C-1.32401158 3.85988688 -3.15554856 3.7693688 -6 4 C-7.28612676 5.05978933 -7.28612676 5.05978933 -7.09765625 7.50390625 C-7.08605469 8.51324219 -7.07445312 9.52257812 -7.0625 10.5625 C-7.05347656 11.57441406 -7.04445312 12.58632813 -7.03515625 13.62890625 C-7.02355469 14.41136719 -7.01195312 15.19382812 -7 16 C-4.6568787 15.74438677 -2.32156597 15.40729228 0 15 C0.33 14.34 0.66 13.68 1 13 C1.99 13 2.98 13 4 13 C3.42655063 15.86724686 3.1385485 16.8614515 1 19 C-1.05859375 19.30078125 -1.05859375 19.30078125 -3.4375 19.3125 C-4.61119141 19.33763672 -4.61119141 19.33763672 -5.80859375 19.36328125 C-8.51925408 18.91392045 -9.34720635 18.15823513 -11 16 C-12.20190901 12.39427296 -12.32670315 9.7897565 -12 6 C-8.56699763 0.73606304 -6.24208391 -0.49936671 0 0 Z" fill="#EDEFEF" transform="translate(185,252)"/>
<path d="M0 0 C1.33998047 0.06960937 1.33998047 0.06960937 2.70703125 0.140625 C3.60808594 0.17671875 4.50914063 0.2128125 5.4375 0.25 C6.46810547 0.31960937 6.46810547 0.31960937 7.51953125 0.390625 C8.17953125 1.710625 8.83953125 3.030625 9.51953125 4.390625 C8.52953125 4.720625 7.53953125 5.050625 6.51953125 5.390625 C6.18953125 4.730625 5.85953125 4.070625 5.51953125 3.390625 C3.8534122 3.347904 2.1857024 3.34998668 0.51953125 3.390625 C-0.73995924 4.42469173 -0.73995924 4.42469173 -0.578125 6.67578125 C-0.56652344 7.59230469 -0.55492188 8.50882812 -0.54296875 9.453125 C-0.52943359 10.83177734 -0.52943359 10.83177734 -0.515625 12.23828125 C-0.50402344 12.94855469 -0.49242188 13.65882813 -0.48046875 14.390625 C3.46680713 14.57004663 6.11758255 14.48413189 9.51953125 12.390625 C9.51953125 13.710625 9.51953125 15.030625 9.51953125 16.390625 C5.8179505 18.8583455 2.81250638 19.04709605 -1.48046875 18.390625 C-3.98046875 17.015625 -3.98046875 17.015625 -5.48046875 14.390625 C-6.11344995 10.0106861 -6.36639385 6.08193655 -4.27734375 2.09375 C-2.48046875 0.390625 -2.48046875 0.390625 0 0 Z" fill="#F1F3F4" transform="translate(81.48046875,252.609375)"/>
<path d="M0 0 C2.90985003 3.12569056 5 5.65069297 5 10 C-1.32278971 9.67373505 -6.55464391 9.38495108 -12 6 C-11.67 4.35 -11.34 2.7 -11 1 C-4.0286944 -1.75609756 -4.0286944 -1.75609756 0 0 Z" fill="#92DDAA" transform="translate(137,133)"/>
<path d="M0 0 C5.95948775 0.37246798 10.66916025 2.40106452 16 5 C15.42655063 7.86724686 15.1385485 8.8614515 13 11 C7.70423336 10.74782064 3.55763582 8.48703477 -1 6 C-1.042721 4.33388095 -1.04063832 2.66617115 -1 1 C-0.67 0.67 -0.34 0.34 0 0 Z" fill="#ABE4BC" transform="translate(158,26)"/>
<path d="M0 0 C2.875 -0.1875 2.875 -0.1875 6 0 C8.45811625 3.68717438 8.31118164 5.64345704 8 10 C7.01 11.485 7.01 11.485 6 13 C3 13.3125 3 13.3125 0 13 C-2 11 -2 11 -2.25 7.625 C-2.02515633 4.36476676 -1.7239511 2.69367359 0 0 Z" fill="#222222" transform="translate(100,255)"/>
<path d="M0 0 C6.8359375 -0.1953125 6.8359375 -0.1953125 9 0 C11 2 11 2 11.25 5 C11 8 11 8 9 10 C5.98173347 10.27240673 3.03629378 10.08675125 0 10 C0 6.7 0 3.4 0 0 Z" fill="#252525" transform="translate(149,217)"/>
<path d="M0 0 C5 1 5 1 6.58203125 2.77734375 C6.98808594 3.49019531 7.39414063 4.20304687 7.8125 4.9375 C8.23144531 5.64777344 8.65039062 6.35804688 9.08203125 7.08984375 C10 9 10 9 10 11 C9.01 11.33 8.02 11.66 7 12 C6.01 10.35 5.02 8.7 4 7 C3.67 10.96 3.34 14.92 3 19 C2.01 19 1.02 19 0 19 C0 12.73 0 6.46 0 0 Z" fill="#E3E4E4" transform="translate(137,252)"/>
<path d="M0 0 C4.62 0 9.24 0 14 0 C14 0.66 14 1.32 14 2 C12.35 2 10.7 2 9 2 C9 7.28 9 12.56 9 18 C7.68 18 6.36 18 5 18 C5 12.72 5 7.44 5 2 C3.35 2 1.7 2 0 2 C0 1.34 0 0.68 0 0 Z" fill="#EAECEC" transform="translate(191,253)"/>
<path d="M0 0 C1.65 0 3.3 0 5 0 C6.4606285 2.64738916 7 3.89448334 7 7 C6.34 7 5.68 7 5 7 C4.67 10.63 4.34 14.26 4 18 C2.68 18 1.36 18 0 18 C0 12.06 0 6.12 0 0 Z" fill="#DBDCDC" transform="translate(116,253)"/>
<path d="M0 0 C5.07317073 1.07317073 5.07317073 1.07317073 7 3 C7.125 5.5 7.125 5.5 7 8 C6 9 6 9 2.9375 9.3125 C-1.81120946 8.9356183 -4.94062306 7.36181931 -9 5 C-8.38898438 4.88011719 -7.77796875 4.76023438 -7.1484375 4.63671875 C-4.75873445 4.10010089 -4.75873445 4.10010089 -2.625 1.8125 C-1.75875 1.214375 -0.8925 0.61625 0 0 Z" fill="#7CC498" transform="translate(117,151)"/>
<path d="M0 0 C0 0.33 0 0.66 0 1 C-1.423125 1.37125 -1.423125 1.37125 -2.875 1.75 C-5.98250516 2.69986634 -5.98250516 2.69986634 -7.375 4.6875 C-8.22470496 7.83140837 -8.12455824 10.76148579 -8 14 C-5.69 14.66 -3.38 15.32 -1 16 C-1 16.33 -1 16.66 -1 17 C-3.64 17.66 -6.28 18.32 -9 19 C-11.53936964 15.74643266 -12.92103132 13.56265185 -13.5 9.4375 C-12.91912703 5.44399832 -11.82477169 3.82477169 -9 1 C-6.04335481 -0.4783226 -3.25770263 -0.06032783 0 0 Z" fill="#E6E9EA" transform="translate(107,252)"/>
<path d="M0 0 C0.66 0 1.32 0 2 0 C2.67057887 1.7902061 3.3363469 3.58221489 4 5.375 C4.556875 6.87160156 4.556875 6.87160156 5.125 8.3984375 C6 11 6 11 6 13 C2.7 13 -0.6 13 -4 13 C-3.27991594 8.39146203 -1.68704061 4.32762591 0 0 Z" fill="#272727" transform="translate(78,207)"/>
<path d="M0 0 C6.15234375 -0.09765625 6.15234375 -0.09765625 8 0 C9 1 9 1 9.1875 3.9375 C9 7 9 7 7 9 C3.375 9.125 3.375 9.125 0 9 C0 6.03 0 3.06 0 0 Z" fill="#1B1B1B" transform="translate(112,204)"/>
<path d="M0 0 C6.625 -0.25 6.625 -0.25 10 2 C9.125 6.875 9.125 6.875 8 8 C5.32941149 8.14115161 2.67567762 8.04247107 0 8 C0 5.36 0 2.72 0 0 Z" fill="#262727" transform="translate(149,203)"/>
<path d="M0 0 C2.375 1.5 2.375 1.5 4 3 C3.67 3.99 3.34 4.98 3 6 C2.1646875 5.505 2.1646875 5.505 1.3125 5 C-1.40635257 3.82427997 -3.06388754 3.63298594 -6 4 C-8.34626504 5.00966359 -8.34626504 5.00966359 -10 7 C-10.80946422 10.10197397 -10.80946422 10.10197397 -11 13 C-11.33 13 -11.66 13 -12 13 C-12.32470459 8.86001651 -12.4304413 6.66000999 -10.125 3.125 C-6.78965791 -0.21034209 -4.65840593 -0.37267247 0 0 Z" fill="#D0D1D1" transform="translate(185,252)"/>
<path d="M0 0 C0.8971875 0.5259375 0.8971875 0.5259375 1.8125 1.0625 C-4.94711538 8.00480769 -4.94711538 8.00480769 -8.875 8.1875 C-10.0196875 8.125625 -10.0196875 8.125625 -11.1875 8.0625 C-9.94032088 4.32096263 -8.08862219 2.68732484 -5.1875 0.0625 C-2.1875 -0.9375 -2.1875 -0.9375 0 0 Z" fill="#8BDAA0" transform="translate(178.1875,145.9375)"/>
<path d="M0 0 C1.37478516 0.01740234 1.37478516 0.01740234 2.77734375 0.03515625 C3.69644531 0.04417969 4.61554688 0.05320313 5.5625 0.0625 C6.27277344 0.07410156 6.98304687 0.08570313 7.71484375 0.09765625 C8.37484375 1.41765625 9.03484375 2.73765625 9.71484375 4.09765625 C8.72484375 4.42765625 7.73484375 4.75765625 6.71484375 5.09765625 C6.38484375 4.43765625 6.05484375 3.77765625 5.71484375 3.09765625 C4.0487247 3.05493525 2.3810149 3.05701793 0.71484375 3.09765625 C-0.86788226 4.68038226 -0.63251372 6.47799628 -0.84765625 8.66015625 C-0.93144531 9.48644531 -1.01523438 10.31273437 -1.1015625 11.1640625 C-1.16214844 11.80214844 -1.22273438 12.44023437 -1.28515625 13.09765625 C-1.61515625 13.09765625 -1.94515625 13.09765625 -2.28515625 13.09765625 C-2.61515625 10.45765625 -2.94515625 7.81765625 -3.28515625 5.09765625 C-4.27515625 5.59265625 -4.27515625 5.59265625 -5.28515625 6.09765625 C-2.98903326 0.12773646 -2.98903326 0.12773646 0 0 Z" fill="#C1C2C2" transform="translate(81.28515625,252.90234375)"/>
<path d="M0 0 C0.66 0 1.32 0 2 0 C0.63016497 3.16115776 0.0109362 3.9927092 -3 6 C-5.33199388 6.07905064 -7.66832622 6.08798769 -10 6 C-10.33 5.34 -10.66 4.68 -11 4 C-10.34 4 -9.68 4 -9 4 C-9 3.34 -9 2.68 -9 2 C-6.94921875 1.77213542 -4.8984375 1.54427083 -2.84765625 1.31640625 C-0.98859771 1.18113386 -0.98859771 1.18113386 0 0 Z" fill="#62717C" transform="translate(146,29)"/>
<path d="M0 0 C0.99 0.33 1.98 0.66 3 1 C2.67 1.66 2.34 2.32 2 3 C1.01 3 0.02 3 -1 3 C-0.01 4.485 -0.01 4.485 1 6 C1.99 6 2.98 6 4 6 C3.67 6.99 3.34 7.98 3 9 C0.625 9.125 0.625 9.125 -2 9 C-2.66 8.34 -3.32 7.68 -4 7 C-3.8125 4.5 -3.8125 4.5 -3 2 C-2.01 1.34 -1.02 0.68 0 0 Z" fill="#8CBF9B" transform="translate(160,151)"/>
<path d="M0 0 C0.66 0.33 1.32 0.66 2 1 C2 4.96 2 8.92 2 13 C1.01 13 0.02 13 -1 13 C-1.02686553 11.02090602 -1.04633375 9.04171029 -1.0625 7.0625 C-1.07410156 5.96035156 -1.08570312 4.85820312 -1.09765625 3.72265625 C-1 1 -1 1 0 0 Z" fill="#F7F9F9" transform="translate(117,258)"/>
<path d="M0 0 C3.875 0.875 3.875 0.875 5 2 C5.04063832 3.66617115 5.042721 5.33388095 5 7 C3.02 7 1.04 7 -1 7 C-1.33 6.01 -1.66 5.02 -2 4 C-1.01 4 -0.02 4 1 4 C0.67 2.68 0.34 1.36 0 0 Z" fill="#8ACAA1" transform="translate(119,152)"/>
<path d="M0 0 C0 0.33 0 0.66 0 1 C-1.423125 1.37125 -1.423125 1.37125 -2.875 1.75 C-6.00193433 2.68663912 -6.00193433 2.68663912 -7.3125 4.75 C-8.14602156 7.47788874 -8.61491774 10.17606341 -9 13 C-9.33 13 -9.66 13 -10 13 C-10 10.36 -10 7.72 -10 5 C-10.99 5.495 -10.99 5.495 -12 6 C-9.40401988 0.00927665 -6.20086134 -0.23399477 0 0 Z" fill="#C7C8C8" transform="translate(107,252)"/>
<path d="M0 0 C2.76276177 0.52268466 5.3260876 1.10869587 8 2 C8 2.99 8 3.98 8 5 C4.37 4.67 0.74 4.34 -3 4 C-2.01 3.34 -1.02 2.68 0 2 C0 1.34 0 0.68 0 0 Z" fill="#7EB890" transform="translate(134,138)"/>
<path d="M0 0 C-1.39332574 3.36720387 -2.9789286 4.9859524 -6 7 C-7.32 6.34 -8.64 5.68 -10 5 C-8.90241493 4.15801693 -7.79664683 3.32669329 -6.6875 2.5 C-6.07261719 2.0359375 -5.45773438 1.571875 -4.82421875 1.09375 C-3 0 -3 0 0 0 Z" fill="#A1E0B3" transform="translate(149,115)"/>
<path d="M0 0 C3.1875 -0.3125 3.1875 -0.3125 6 0 C5.67 2.97 5.34 5.94 5 9 C4.67 9 4.34 9 4 9 C4 6.69 4 4.38 4 2 C0.87802522 3.3089572 0.87802522 3.3089572 -1 6 C-1.66 5.67 -2.32 5.34 -3 5 C-1.875 2.5 -1.875 2.5 0 0 Z" fill="#95CCA8" transform="translate(198,116)"/>
<path d="M0 0 C0.99 0 1.98 0 3 0 C3 1.32 3 2.64 3 4 C3.99 4 4.98 4 6 4 C5.6875 5.9375 5.6875 5.9375 5 8 C4.01 8.33 3.02 8.66 2 9 C0.50178941 5.62902617 0 3.79557881 0 0 Z" fill="#89E3A6" transform="translate(82,124)"/>
<path d="M0 0 C0.23460937 0.64453125 0.46921875 1.2890625 0.7109375 1.953125 C1.81161073 4.2077908 1.81161073 4.2077908 4.1640625 4.609375 C4.97617188 4.65578125 5.78828125 4.7021875 6.625 4.75 C7.85089844 4.83507812 7.85089844 4.83507812 9.1015625 4.921875 C9.72804687 4.94765625 10.35453125 4.9734375 11 5 C11 5.66 11 6.32 11 7 C7.37 7 3.74 7 0 7 C0 4.69 0 2.38 0 0 Z" fill="#FBFEFE" transform="translate(159,264)"/>
<path d="M0 0 C2.14915785 3.22373677 2.38286803 4.26703674 2 8 C1.34 8.66 0.68 9.32 0 10 C-2.625 9.625 -2.625 9.625 -5 9 C-5 8.34 -5 7.68 -5 7 C-3.35 7 -1.7 7 0 7 C0 4.69 0 2.38 0 0 Z" fill="#8CC4A1" transform="translate(205,67)"/>
<path d="M0 0 C3.63 0 7.26 0 11 0 C11 0.66 11 1.32 11 2 C10.37351563 2.03738281 9.74703125 2.07476562 9.1015625 2.11328125 C8.28429687 2.17902344 7.46703125 2.24476563 6.625 2.3125 C5.40683594 2.39951172 5.40683594 2.39951172 4.1640625 2.48828125 C1.62078662 2.82990528 1.62078662 2.82990528 0 6 C0 4.02 0 2.04 0 0 Z" fill="#F9FCFC" transform="translate(159,253)"/>
<path d="M0 0 C2.64 0 5.28 0 8 0 C8.66 1.32 9.32 2.64 10 4 C9.01 4.33 8.02 4.66 7 5 C6.67 4.34 6.34 3.68 6 3 C2.97065509 2.34227572 2.97065509 2.34227572 0 2 C0 1.34 0 0.68 0 0 Z" fill="#E6E8E9" transform="translate(81,253)"/>
<path d="M0 0 C3.29148243 1.13499394 3.9959869 1.99283376 5.75 5.125 C6.1625 6.07375 6.575 7.0225 7 8 C5.35 8 3.7 8 2 8 C0 2.25 0 2.25 0 0 Z" fill="#22292B" transform="translate(101,166)"/>
<path d="M0 0 C0.99 0 1.98 0 3 0 C3 2.31 3 4.62 3 7 C2.34 7 1.68 7 1 7 C1.33 5.02 1.66 3.04 2 1 C1.34 0.67 0.68 0.34 0 0 Z M-4 4 C-3.34 4 -2.68 4 -2 4 C-2.375 5.9375 -2.375 5.9375 -3 8 C-3.99 8.495 -3.99 8.495 -5 9 C-4.67 7.35 -4.34 5.7 -4 4 Z" fill="#95DDAB" transform="translate(199,118)"/>
<path d="M0 0 C0.66 0.33 1.32 0.66 2 1 C1.01 2.485 1.01 2.485 0 4 C1.98 3.67 3.96 3.34 6 3 C2.3558226 5.4294516 0.28758728 5.16179575 -4 5 C-4 4.01 -4 3.02 -4 2 C-2.125 0.9375 -2.125 0.9375 0 0 Z" fill="#21282E" transform="translate(174,168)"/>
<path d="M0 0 C0.99 0.33 1.98 0.66 3 1 C2.1875 2.9375 2.1875 2.9375 1 5 C0.01 5.33 -0.98 5.66 -2 6 C-2 5.34 -2 4.68 -2 4 C-3.65 4 -5.3 4 -7 4 C-7 3.67 -7 3.34 -7 3 C-5.5459375 2.5359375 -5.5459375 2.5359375 -4.0625 2.0625 C-1.15934208 1.30476658 -1.15934208 1.30476658 0 0 Z" fill="#C4C6C6" transform="translate(89,265)"/>
<path d="M0 0 C0.66 0.33 1.32 0.66 2 1 C2 1.99 2 2.98 2 4 C2.804375 4.28875 3.60875 4.5775 4.4375 4.875 C7 6 7 6 8 8 C7.01 8.33 6.02 8.66 5 9 C3.02 7.02 1.04 5.04 -1 3 C-0.67 2.01 -0.34 1.02 0 0 Z" fill="#85C8A2" transform="translate(91,139)"/>
<path d="M0 0 C0.66 0.33 1.32 0.66 2 1 C1.04801289 2.64951226 0.08820855 4.29451508 -0.875 5.9375 C-1.40867188 6.85402344 -1.94234375 7.77054688 -2.4921875 8.71484375 C-4 11 -4 11 -6 12 C-5.36934243 8.78147169 -4.21979305 6.49198931 -2.4375 3.75 C-1.98246094 3.04359375 -1.52742187 2.3371875 -1.05859375 1.609375 C-0.53458984 0.81273438 -0.53458984 0.81273438 0 0 Z" fill="#8EC9A5" transform="translate(200,125)"/>
<path d="M0 0 C0.99 0 1.98 0 3 0 C2.6875 1.875 2.6875 1.875 2 4 C1.01 4.66 0.02 5.32 -1 6 C-1 5.34 -1 4.68 -1 4 C-2.65 4 -4.3 4 -6 4 C-6 3.67 -6 3.34 -6 3 C-5.195625 2.87625 -4.39125 2.7525 -3.5625 2.625 C-2.716875 2.41875 -1.87125 2.2125 -1 2 C-0.67 1.34 -0.34 0.68 0 0 Z" fill="#BEBFBF" transform="translate(186,265)"/>
<path d="M0 0 C0 0.66 0 1.32 0 2 C-0.66 2 -1.32 2 -2 2 C-2.33 3.32 -2.66 4.64 -3 6 C-3.66 6 -4.32 6 -5 6 C-5 4.35 -5 2.7 -5 1 C-3 0 -3 0 0 0 Z" fill="#8CC3A7" transform="translate(78,108)"/>
<path d="M0 0 C0 0.33 0 0.66 0 1 C-2.64 1.66 -5.28 2.32 -8 3 C-8.66 2.01 -9.32 1.02 -10 0 C-6.7169902 -1.6415049 -3.57454967 -0.51888624 0 0 Z" fill="#C3C6C7" transform="translate(106,268)"/>
<path d="M0 0 C0.99 0.33 1.98 0.66 3 1 C3 2.98 3 4.96 3 7 C1.68 6.67 0.36 6.34 -1 6 C-0.67 4.02 -0.34 2.04 0 0 Z" fill="#C2C6C9" transform="translate(54,198)"/>
<path d="M0 0 C3.96 0.33 7.92 0.66 12 1 C12 1.33 12 1.66 12 2 C10.95199219 2.09087891 10.95199219 2.09087891 9.8828125 2.18359375 C8.97273438 2.26738281 8.06265625 2.35117188 7.125 2.4375 C6.22007813 2.51871094 5.31515625 2.59992188 4.3828125 2.68359375 C1.98889139 2.86989285 1.98889139 2.86989285 0 4 C0 2.68 0 1.36 0 0 Z" fill="#CACCCE" transform="translate(39,201)"/>
<path d="M0 0 C0.66 0 1.32 0 2 0 C2.185625 1.2065625 2.185625 1.2065625 2.375 2.4375 C2.58125 3.283125 2.7875 4.12875 3 5 C3.66 5.33 4.32 5.66 5 6 C3.35 5.67 1.7 5.34 0 5 C0 3.35 0 1.7 0 0 Z" fill="#A0D9B2" transform="translate(78,60)"/>
</svg>