<svg width="107" height="107" viewBox="0 0 107 107" fill="none" xmlns="http://www.w3.org/2000/svg">
<rect width="106.696" height="106.696" rx="20" fill="#F5AE58"/>
<path d="M77.2418 77.3915C72.5899 82.7564 66.0728 85.9997 59.1024 87.2325C52.907 88.3274 46.5632 87.7525 40.3245 87.6229C36.2176 87.5382 32.119 87.4967 28.0154 87.6229C26.392 87.6728 22.635 88.2327 21.5216 86.8803C20.5232 85.669 21.4583 84.4578 22.4967 83.74C24.7035 82.2165 26.1703 81.9141 26.487 78.8154C26.777 75.9726 26.537 72.9603 26.7403 70.1042C26.5853 57.1479 27.167 44.0072 26.7353 31.0659C26.652 28.582 26.5936 26.7975 24.6435 24.9948C23.3284 23.7786 20.6616 22.7535 21.605 20.4673C22.3134 18.7493 24.8569 19.1597 26.332 19.2012C28.9805 19.276 31.6123 19.4272 34.2658 19.3923C40.2895 19.3125 46.3499 18.7443 52.3753 19.3275C69.0397 20.9424 82.6172 29.9859 84.9373 47.385C86.3108 57.6813 84.1556 69.4197 77.2402 77.3932L77.2418 77.3915ZM43.6497 25.1975C40.6629 25.3271 37.0276 25.6611 37.101 29.5041V76.9529C37.0293 81.7396 42.553 81.5934 46.0065 81.7097C50.1518 81.8493 54.077 81.8526 58.0756 80.6081C71.9465 76.2933 75.2067 60.9594 73.4466 48.131C72.3332 40.0263 68.6363 32.6161 61.2558 28.5936C56.0288 25.7441 49.5584 24.9416 43.6497 25.1975Z" fill="#100B2D"/>
<path d="M50.682 68.2972C50.682 68.2963 50.6827 68.2956 50.6836 68.2956C52.4581 68.3191 54.1358 68.8194 55.1039 70.394C56.679 72.956 55.4239 76.0065 52.7138 77.0765C50.2603 78.0452 45.68 77.7045 43.0315 77.3855C41.9281 77.2526 41.1647 76.8206 41.0614 75.6144C40.938 74.1772 41.0014 72.0389 41.0614 70.5668C41.188 67.4083 42.0081 63.1782 45.9117 62.8874C49.0069 62.6581 51.0353 65.3647 50.682 68.2972Z" fill="#100B2D"/>
</svg>
